solid OpenSCAD_Model
  facet normal 0.984807 0.173654 0
    outer loop
      vertex 3.21394 47.8798 5
      vertex 2.66953 50.9672 0
      vertex 2.66953 50.9672 5
    endloop
  endfacet
  facet normal 0.984807 0.173654 0
    outer loop
      vertex 2.66953 50.9672 0
      vertex 3.21394 47.8798 5
      vertex 3.21394 47.8798 0
    endloop
  endfacet
  facet normal -0.342018 -0.939693 0
    outer loop
      vertex -4.49333 50.685 0
      vertex 3.21394 47.8798 5
      vertex -4.49333 50.685 5
    endloop
  endfacet
  facet normal -0.342018 -0.939693 -0
    outer loop
      vertex 3.21394 47.8798 5
      vertex -4.49333 50.685 0
      vertex 3.21394 47.8798 0
    endloop
  endfacet
  facet normal 0 0 1
    outer loop
      vertex -14.4671 55.6836 5
      vertex -14.461 55.3348 5
      vertex -14.4579 55.5093 5
    endloop
  endfacet
  facet normal 0 0 1
    outer loop
      vertex -14.4671 55.6836 5
      vertex -14.4762 55.161 5
      vertex -14.461 55.3348 5
    endloop
  endfacet
  facet normal 0 0 1
    outer loop
      vertex -14.4883 55.8568 5
      vertex -14.4762 55.161 5
      vertex -14.4671 55.6836 5
    endloop
  endfacet
  facet normal 0 0 1
    outer loop
      vertex -14.4883 55.8568 5
      vertex -14.5035 54.9887 5
      vertex -14.4762 55.161 5
    endloop
  endfacet
  facet normal 0 0 1
    outer loop
      vertex -14.5216 56.0281 5
      vertex -14.5035 54.9887 5
      vertex -14.4883 55.8568 5
    endloop
  endfacet
  facet normal 0 0 1
    outer loop
      vertex -14.5216 56.0281 5
      vertex -14.5427 54.8186 5
      vertex -14.5035 54.9887 5
    endloop
  endfacet
  facet normal 0 0 1
    outer loop
      vertex -14.5668 56.1966 5
      vertex -14.5427 54.8186 5
      vertex -14.5216 56.0281 5
    endloop
  endfacet
  facet normal 0 0 1
    outer loop
      vertex -14.5668 56.1966 5
      vertex -14.5938 54.6518 5
      vertex -14.5427 54.8186 5
    endloop
  endfacet
  facet normal 0 0 1
    outer loop
      vertex -14.6236 56.3616 5
      vertex -14.5938 54.6518 5
      vertex -14.5668 56.1966 5
    endloop
  endfacet
  facet normal 0 0 1
    outer loop
      vertex -14.6236 56.3616 5
      vertex -14.6563 54.4888 5
      vertex -14.5938 54.6518 5
    endloop
  endfacet
  facet normal 0 0 1
    outer loop
      vertex -14.6918 56.5222 5
      vertex -14.6563 54.4888 5
      vertex -14.6236 56.3616 5
    endloop
  endfacet
  facet normal 0 0 1
    outer loop
      vertex -14.6918 56.5222 5
      vertex -14.73 54.3307 5
      vertex -14.6563 54.4888 5
    endloop
  endfacet
  facet normal 0 0 1
    outer loop
      vertex -14.771 56.6777 5
      vertex -14.73 54.3307 5
      vertex -14.6918 56.5222 5
    endloop
  endfacet
  facet normal 0 0 1
    outer loop
      vertex -14.771 56.6777 5
      vertex -14.8146 54.1781 5
      vertex -14.73 54.3307 5
    endloop
  endfacet
  facet normal 0 0 1
    outer loop
      vertex -14.8609 56.8273 5
      vertex -14.8146 54.1781 5
      vertex -14.771 56.6777 5
    endloop
  endfacet
  facet normal 0 0 1
    outer loop
      vertex -14.8609 56.8273 5
      vertex -14.9097 54.0317 5
      vertex -14.8146 54.1781 5
    endloop
  endfacet
  facet normal 0 0 1
    outer loop
      vertex -14.961 56.9702 5
      vertex -14.9097 54.0317 5
      vertex -14.8609 56.8273 5
    endloop
  endfacet
  facet normal 0 0 1
    outer loop
      vertex -14.961 56.9702 5
      vertex -15.0147 53.8924 5
      vertex -14.9097 54.0317 5
    endloop
  endfacet
  facet normal 0 0 1
    outer loop
      vertex -15.0708 57.1058 5
      vertex -15.0147 53.8924 5
      vertex -14.961 56.9702 5
    endloop
  endfacet
  facet normal 0 0 1
    outer loop
      vertex -15.0708 57.1058 5
      vertex -15.1292 53.7607 5
      vertex -15.0147 53.8924 5
    endloop
  endfacet
  facet normal 0 0 1
    outer loop
      vertex -15.1898 57.2334 5
      vertex -15.1292 53.7607 5
      vertex -15.0708 57.1058 5
    endloop
  endfacet
  facet normal 0 0 1
    outer loop
      vertex -15.3318 53.5684 5
      vertex -15.1292 53.7607 5
      vertex -15.1898 57.2334 5
    endloop
  endfacet
  facet normal 0 0 1
    outer loop
      vertex -15.3318 53.5684 5
      vertex -15.1898 57.2334 5
      vertex -15.3174 57.3524 5
    endloop
  endfacet
  facet normal 0 0 1
    outer loop
      vertex -15.1292 53.7607 5
      vertex -15.3318 53.5684 5
      vertex -15.2526 53.6373 5
    endloop
  endfacet
  facet normal 0 -0 1
    outer loop
      vertex -15.3318 53.5684 5
      vertex -15.3174 57.3524 5
      vertex -15.453 57.4623 5
    endloop
  endfacet
  facet normal 0 0 1
    outer loop
      vertex 2.99756 51.7798 5
      vertex 2.99756 51.6402 5
      vertex 3 51.71 5
    endloop
  endfacet
  facet normal 0 0 1
    outer loop
      vertex 2.99027 51.8492 5
      vertex 2.99756 51.6402 5
      vertex 2.99756 51.7798 5
    endloop
  endfacet
  facet normal 0 0 1
    outer loop
      vertex 2.99027 51.8492 5
      vertex 2.99027 51.5708 5
      vertex 2.99756 51.6402 5
    endloop
  endfacet
  facet normal 0 0 1
    outer loop
      vertex 2.97815 51.9179 5
      vertex 2.99027 51.5708 5
      vertex 2.99027 51.8492 5
    endloop
  endfacet
  facet normal 0 0 1
    outer loop
      vertex 2.97815 51.9179 5
      vertex 2.97815 51.5021 5
      vertex 2.99027 51.5708 5
    endloop
  endfacet
  facet normal 0 0 1
    outer loop
      vertex 2.96126 51.9856 5
      vertex 2.97815 51.5021 5
      vertex 2.97815 51.9179 5
    endloop
  endfacet
  facet normal 0 0 1
    outer loop
      vertex 2.96126 51.9856 5
      vertex 2.96126 51.4344 5
      vertex 2.97815 51.5021 5
    endloop
  endfacet
  facet normal 0 0 1
    outer loop
      vertex 2.93969 52.052 5
      vertex 2.96126 51.4344 5
      vertex 2.96126 51.9856 5
    endloop
  endfacet
  facet normal 0 0 1
    outer loop
      vertex 2.93969 52.052 5
      vertex 2.93969 51.368 5
      vertex 2.96126 51.4344 5
    endloop
  endfacet
  facet normal 0 0 1
    outer loop
      vertex 2.91354 52.1167 5
      vertex 2.93969 51.368 5
      vertex 2.93969 52.052 5
    endloop
  endfacet
  facet normal 0 0 1
    outer loop
      vertex 2.91354 52.1167 5
      vertex 2.91354 51.3033 5
      vertex 2.93969 51.368 5
    endloop
  endfacet
  facet normal 0 0 1
    outer loop
      vertex 2.88295 52.1795 5
      vertex 2.91354 51.3033 5
      vertex 2.91354 52.1167 5
    endloop
  endfacet
  facet normal 0 0 1
    outer loop
      vertex 2.88295 52.1795 5
      vertex 2.88295 51.2405 5
      vertex 2.91354 51.3033 5
    endloop
  endfacet
  facet normal 0 0 1
    outer loop
      vertex 2.84805 52.2399 5
      vertex 2.88295 51.2405 5
      vertex 2.88295 52.1795 5
    endloop
  endfacet
  facet normal 0 0 1
    outer loop
      vertex 2.84805 52.2399 5
      vertex 2.84805 51.1801 5
      vertex 2.88295 51.2405 5
    endloop
  endfacet
  facet normal 0 0 1
    outer loop
      vertex 2.80902 52.2978 5
      vertex 2.84805 51.1801 5
      vertex 2.84805 52.2399 5
    endloop
  endfacet
  facet normal 0 0 1
    outer loop
      vertex 2.80902 52.2978 5
      vertex 2.80902 51.1222 5
      vertex 2.84805 51.1801 5
    endloop
  endfacet
  facet normal 0 0 1
    outer loop
      vertex 2.76604 52.3528 5
      vertex 2.80902 51.1222 5
      vertex 2.80902 52.2978 5
    endloop
  endfacet
  facet normal 0 0 1
    outer loop
      vertex 2.76604 52.3528 5
      vertex 2.76604 51.0672 5
      vertex 2.80902 51.1222 5
    endloop
  endfacet
  facet normal 0 0 1
    outer loop
      vertex 2.71934 52.4047 5
      vertex 2.76604 51.0672 5
      vertex 2.76604 52.3528 5
    endloop
  endfacet
  facet normal 0 0 1
    outer loop
      vertex 2.71934 52.4047 5
      vertex 2.71934 51.0153 5
      vertex 2.76604 51.0672 5
    endloop
  endfacet
  facet normal 0 0 1
    outer loop
      vertex 2.71934 52.4047 5
      vertex 2.66953 50.9672 5
      vertex 2.71934 51.0153 5
    endloop
  endfacet
  facet normal 0 -0 1
    outer loop
      vertex 2.66953 50.9672 5
      vertex 2.71934 52.4047 5
      vertex 2.66913 52.4531 5
    endloop
  endfacet
  facet normal 0 0 1
    outer loop
      vertex 2.61566 52.498 5
      vertex 2.66953 50.9672 5
      vertex 2.66913 52.4531 5
    endloop
  endfacet
  facet normal 0 0 1
    outer loop
      vertex 2.55919 52.539 5
      vertex 2.66953 50.9672 5
      vertex 2.61566 52.498 5
    endloop
  endfacet
  facet normal 0 0 1
    outer loop
      vertex 2.5 52.576 5
      vertex 2.66953 50.9672 5
      vertex 2.55919 52.539 5
    endloop
  endfacet
  facet normal 0 0 1
    outer loop
      vertex 2.43837 52.6088 5
      vertex 2.66953 50.9672 5
      vertex 2.5 52.576 5
    endloop
  endfacet
  facet normal 0 0 1
    outer loop
      vertex 2.37461 52.6372 5
      vertex 2.66953 50.9672 5
      vertex 2.43837 52.6088 5
    endloop
  endfacet
  facet normal 0 0 1
    outer loop
      vertex 1.9651 52.7094 5
      vertex 2.66953 50.9672 5
      vertex 2.37461 52.6372 5
    endloop
  endfacet
  facet normal 0 0 1
    outer loop
      vertex 1.9651 52.7094 5
      vertex 2.37461 52.6372 5
      vertex 2.30902 52.6611 5
    endloop
  endfacet
  facet normal 0 0 1
    outer loop
      vertex 1.9651 52.7094 5
      vertex 2.30902 52.6611 5
      vertex 2.24192 52.6803 5
    endloop
  endfacet
  facet normal 0 0 1
    outer loop
      vertex 1.9651 52.7094 5
      vertex 2.24192 52.6803 5
      vertex 2.17365 52.6948 5
    endloop
  endfacet
  facet normal 0 0 1
    outer loop
      vertex 1.9651 52.7094 5
      vertex 2.17365 52.6948 5
      vertex 2.10453 52.7045 5
    endloop
  endfacet
  facet normal -0 0 1
    outer loop
      vertex 1.9651 52.7094 5
      vertex 2.10453 52.7045 5
      vertex 2.0349 52.7094 5
    endloop
  endfacet
  facet normal 0 0 1
    outer loop
      vertex -4.49333 50.685 5
      vertex 2.66953 50.9672 5
      vertex 1.9651 52.7094 5
    endloop
  endfacet
  facet normal 0 0 1
    outer loop
      vertex 2.66953 50.9672 5
      vertex -4.49333 50.685 5
      vertex 3.21394 47.8798 5
    endloop
  endfacet
  facet normal -0 0 1
    outer loop
      vertex -15.0489 52.6431 5
      vertex -4.49333 50.685 5
      vertex 1.9651 52.7094 5
    endloop
  endfacet
  facet normal 0 0 1
    outer loop
      vertex -15.596 57.5624 5
      vertex -15.3318 53.5684 5
      vertex -15.453 57.4623 5
    endloop
  endfacet
  facet normal 0 0 1
    outer loop
      vertex -15.7455 57.6522 5
      vertex -15.3318 53.5684 5
      vertex -15.596 57.5624 5
    endloop
  endfacet
  facet normal 0 0 1
    outer loop
      vertex -15.0489 52.6431 5
      vertex -15.8055 50.6406 5
      vertex -4.49333 50.685 5
    endloop
  endfacet
  facet normal -0 0 1
    outer loop
      vertex -17.2444 52.9837 5
      vertex -15.0489 52.6431 5
      vertex -15.3318 53.5684 5
    endloop
  endfacet
  facet normal 0 0 1
    outer loop
      vertex -17.2444 52.9837 5
      vertex -15.3318 53.5684 5
      vertex -15.7455 57.6522 5
    endloop
  endfacet
  facet normal 0 0 1
    outer loop
      vertex -15.0489 52.6431 5
      vertex -17.2444 52.9837 5
      vertex -16.7444 51.3481 5
    endloop
  endfacet
  facet normal 0 0 1
    outer loop
      vertex -17.2444 52.9837 5
      vertex -15.7455 57.6522 5
      vertex -15.901 57.7314 5
    endloop
  endfacet
  facet normal 0 0 1
    outer loop
      vertex -15.0489 52.6431 5
      vertex -16.7444 51.3481 5
      vertex -15.8055 50.6406 5
    endloop
  endfacet
  facet normal 0 0 1
    outer loop
      vertex -15.8055 50.6406 5
      vertex -16.7444 51.3481 5
      vertex -15.8752 50.6443 5
    endloop
  endfacet
  facet normal 0 0 1
    outer loop
      vertex -17.2444 52.9837 5
      vertex -15.901 57.7314 5
      vertex -16.0616 57.7996 5
    endloop
  endfacet
  facet normal 0 0 1
    outer loop
      vertex -15.8752 50.6443 5
      vertex -16.7444 51.3481 5
      vertex -15.9445 50.6528 5
    endloop
  endfacet
  facet normal 0 0 1
    outer loop
      vertex -15.9445 50.6528 5
      vertex -16.7444 51.3481 5
      vertex -16.013 50.6661 5
    endloop
  endfacet
  facet normal 0 0 1
    outer loop
      vertex -16.013 50.6661 5
      vertex -16.7444 51.3481 5
      vertex -16.0804 50.6842 5
    endloop
  endfacet
  facet normal 0 0 1
    outer loop
      vertex -17.2444 52.9837 5
      vertex -16.0616 57.7996 5
      vertex -16.2266 57.8564 5
    endloop
  endfacet
  facet normal 0 0 1
    outer loop
      vertex -16.0804 50.6842 5
      vertex -16.7444 51.3481 5
      vertex -16.1464 50.7069 5
    endloop
  endfacet
  facet normal 0 0 1
    outer loop
      vertex -16.1464 50.7069 5
      vertex -16.7444 51.3481 5
      vertex -16.2107 50.7341 5
    endloop
  endfacet
  facet normal 0 0 1
    outer loop
      vertex -16.2107 50.7341 5
      vertex -16.7444 51.3481 5
      vertex -16.2729 50.7658 5
    endloop
  endfacet
  facet normal 0 0 1
    outer loop
      vertex -17.2444 52.9837 5
      vertex -16.2266 57.8564 5
      vertex -16.3952 57.9016 5
    endloop
  endfacet
  facet normal 0 0 1
    outer loop
      vertex -16.2729 50.7658 5
      vertex -16.7444 51.3481 5
      vertex -16.3327 50.8018 5
    endloop
  endfacet
  facet normal 0 0 1
    outer loop
      vertex -16.3327 50.8018 5
      vertex -16.7444 51.3481 5
      vertex -16.3899 50.8418 5
    endloop
  endfacet
  facet normal 0 0 1
    outer loop
      vertex -16.3899 50.8418 5
      vertex -16.7444 51.3481 5
      vertex -16.4441 50.8857 5
    endloop
  endfacet
  facet normal 0 0 1
    outer loop
      vertex -17.2444 52.9837 5
      vertex -16.3952 57.9016 5
      vertex -16.5665 57.9349 5
    endloop
  endfacet
  facet normal 0 0 1
    outer loop
      vertex -16.4441 50.8857 5
      vertex -16.7444 51.3481 5
      vertex -16.4952 50.9333 5
    endloop
  endfacet
  facet normal 0 0 1
    outer loop
      vertex -16.4952 50.9333 5
      vertex -16.7444 51.3481 5
      vertex -16.5428 50.9844 5
    endloop
  endfacet
  facet normal 0 0 1
    outer loop
      vertex -16.5428 50.9844 5
      vertex -16.7444 51.3481 5
      vertex -16.5867 51.0386 5
    endloop
  endfacet
  facet normal 0 0 1
    outer loop
      vertex -16.6267 51.0958 5
      vertex -16.7444 51.3481 5
      vertex -16.6627 51.1556 5
    endloop
  endfacet
  facet normal 0 0 1
    outer loop
      vertex -16.6627 51.1556 5
      vertex -16.7444 51.3481 5
      vertex -16.6944 51.2178 5
    endloop
  endfacet
  facet normal 0 0 1
    outer loop
      vertex -17.2444 52.9837 5
      vertex -16.5665 57.9349 5
      vertex -16.7397 57.9562 5
    endloop
  endfacet
  facet normal 0 0 1
    outer loop
      vertex -16.6944 51.2178 5
      vertex -16.7444 51.3481 5
      vertex -16.7217 51.2821 5
    endloop
  endfacet
  facet normal 0 0 1
    outer loop
      vertex -17.2444 52.9837 5
      vertex -16.7397 57.9562 5
      vertex -16.9139 57.9653 5
    endloop
  endfacet
  facet normal 0 0 1
    outer loop
      vertex -17.2444 52.9837 5
      vertex -16.9139 57.9653 5
      vertex -17.0884 57.9622 5
    endloop
  endfacet
  facet normal 0 0 1
    outer loop
      vertex -16.5867 51.0386 5
      vertex -16.7444 51.3481 5
      vertex -16.6267 51.0958 5
    endloop
  endfacet
  facet normal -0 0 1
    outer loop
      vertex -17.2622 57.947 5
      vertex -17.2444 52.9837 5
      vertex -17.0884 57.9622 5
    endloop
  endfacet
  facet normal -0 0 1
    outer loop
      vertex -17.4346 57.9197 5
      vertex -17.2444 52.9837 5
      vertex -17.2622 57.947 5
    endloop
  endfacet
  facet normal -0 0 1
    outer loop
      vertex -17.5199 53.0298 5
      vertex -17.2444 52.9837 5
      vertex -17.4346 57.9197 5
    endloop
  endfacet
  facet normal 0 0 1
    outer loop
      vertex -17.2444 52.9837 5
      vertex -17.5199 53.0298 5
      vertex -17.3486 52.9965 5
    endloop
  endfacet
  facet normal -0 0 1
    outer loop
      vertex -17.6046 57.8805 5
      vertex -17.5199 53.0298 5
      vertex -17.4346 57.9197 5
    endloop
  endfacet
  facet normal 0 0 1
    outer loop
      vertex -17.6046 57.8805 5
      vertex -17.6885 53.0749 5
      vertex -17.5199 53.0298 5
    endloop
  endfacet
  facet normal -0 0 1
    outer loop
      vertex -17.7715 57.8295 5
      vertex -17.6885 53.0749 5
      vertex -17.6046 57.8805 5
    endloop
  endfacet
  facet normal 0 0 1
    outer loop
      vertex -17.7715 57.8295 5
      vertex -17.8535 53.1317 5
      vertex -17.6885 53.0749 5
    endloop
  endfacet
  facet normal -0 0 1
    outer loop
      vertex -17.9344 57.7669 5
      vertex -17.8535 53.1317 5
      vertex -17.7715 57.8295 5
    endloop
  endfacet
  facet normal 0 0 1
    outer loop
      vertex -17.9344 57.7669 5
      vertex -18.0141 53.1999 5
      vertex -17.8535 53.1317 5
    endloop
  endfacet
  facet normal -0 0 1
    outer loop
      vertex -18.0925 57.6932 5
      vertex -18.0141 53.1999 5
      vertex -17.9344 57.7669 5
    endloop
  endfacet
  facet normal 0 0 1
    outer loop
      vertex -18.0925 57.6932 5
      vertex -18.1696 53.2791 5
      vertex -18.0141 53.1999 5
    endloop
  endfacet
  facet normal -0 0 1
    outer loop
      vertex -18.2452 57.6086 5
      vertex -18.1696 53.2791 5
      vertex -18.0925 57.6932 5
    endloop
  endfacet
  facet normal 0 0 1
    outer loop
      vertex -18.2452 57.6086 5
      vertex -18.3192 53.369 5
      vertex -18.1696 53.2791 5
    endloop
  endfacet
  facet normal -0 0 1
    outer loop
      vertex -18.3915 57.5136 5
      vertex -18.3192 53.369 5
      vertex -18.2452 57.6086 5
    endloop
  endfacet
  facet normal 0 0 1
    outer loop
      vertex -18.3915 57.5136 5
      vertex -18.4621 53.4691 5
      vertex -18.3192 53.369 5
    endloop
  endfacet
  facet normal -0 0 1
    outer loop
      vertex -18.5309 57.4085 5
      vertex -18.4621 53.4691 5
      vertex -18.3915 57.5136 5
    endloop
  endfacet
  facet normal 0 0 1
    outer loop
      vertex -18.5309 57.4085 5
      vertex -18.5977 53.5789 5
      vertex -18.4621 53.4691 5
    endloop
  endfacet
  facet normal -0 0 1
    outer loop
      vertex -18.6626 57.2941 5
      vertex -18.5977 53.5789 5
      vertex -18.5309 57.4085 5
    endloop
  endfacet
  facet normal 0 0 1
    outer loop
      vertex -18.6626 57.2941 5
      vertex -18.7253 53.6979 5
      vertex -18.5977 53.5789 5
    endloop
  endfacet
  facet normal -0 0 1
    outer loop
      vertex -18.7859 57.1707 5
      vertex -18.7253 53.6979 5
      vertex -18.6626 57.2941 5
    endloop
  endfacet
  facet normal 0 0 1
    outer loop
      vertex -18.7859 57.1707 5
      vertex -18.8443 53.8255 5
      vertex -18.7253 53.6979 5
    endloop
  endfacet
  facet normal -0 0 1
    outer loop
      vertex -18.9004 57.039 5
      vertex -18.8443 53.8255 5
      vertex -18.7859 57.1707 5
    endloop
  endfacet
  facet normal 0 0 1
    outer loop
      vertex -18.9004 57.039 5
      vertex -18.9541 53.9611 5
      vertex -18.8443 53.8255 5
    endloop
  endfacet
  facet normal -0 0 1
    outer loop
      vertex -19.0054 56.8996 5
      vertex -18.9541 53.9611 5
      vertex -18.9004 57.039 5
    endloop
  endfacet
  facet normal 0 0 1
    outer loop
      vertex -19.0054 56.8996 5
      vertex -19.0542 54.1041 5
      vertex -18.9541 53.9611 5
    endloop
  endfacet
  facet normal -0 0 1
    outer loop
      vertex -19.1005 56.7533 5
      vertex -19.0542 54.1041 5
      vertex -19.0054 56.8996 5
    endloop
  endfacet
  facet normal 0 0 1
    outer loop
      vertex -19.1005 56.7533 5
      vertex -19.1441 54.2537 5
      vertex -19.0542 54.1041 5
    endloop
  endfacet
  facet normal -0 0 1
    outer loop
      vertex -19.1851 56.6007 5
      vertex -19.1441 54.2537 5
      vertex -19.1005 56.7533 5
    endloop
  endfacet
  facet normal 0 0 1
    outer loop
      vertex -19.1851 56.6007 5
      vertex -19.2233 54.4091 5
      vertex -19.1441 54.2537 5
    endloop
  endfacet
  facet normal -0 0 1
    outer loop
      vertex -19.2588 56.4425 5
      vertex -19.2233 54.4091 5
      vertex -19.1851 56.6007 5
    endloop
  endfacet
  facet normal 0 0 1
    outer loop
      vertex -19.2588 56.4425 5
      vertex -19.2915 54.5698 5
      vertex -19.2233 54.4091 5
    endloop
  endfacet
  facet normal -0 0 1
    outer loop
      vertex -19.3214 56.2796 5
      vertex -19.2915 54.5698 5
      vertex -19.2588 56.4425 5
    endloop
  endfacet
  facet normal 0 0 1
    outer loop
      vertex -19.3214 56.2796 5
      vertex -19.3483 54.7347 5
      vertex -19.2915 54.5698 5
    endloop
  endfacet
  facet normal -0 0 1
    outer loop
      vertex -19.3724 56.1127 5
      vertex -19.3483 54.7347 5
      vertex -19.3214 56.2796 5
    endloop
  endfacet
  facet normal 0 0 1
    outer loop
      vertex -19.3724 56.1127 5
      vertex -19.3935 54.9033 5
      vertex -19.3483 54.7347 5
    endloop
  endfacet
  facet normal -0 0 1
    outer loop
      vertex -19.4116 55.9427 5
      vertex -19.3935 54.9033 5
      vertex -19.3724 56.1127 5
    endloop
  endfacet
  facet normal 0 0 1
    outer loop
      vertex -19.4116 55.9427 5
      vertex -19.4268 55.0746 5
      vertex -19.3935 54.9033 5
    endloop
  endfacet
  facet normal -0 0 1
    outer loop
      vertex -19.4389 55.7703 5
      vertex -19.4268 55.0746 5
      vertex -19.4116 55.9427 5
    endloop
  endfacet
  facet normal 0 0 1
    outer loop
      vertex -19.4389 55.7703 5
      vertex -19.448 55.2478 5
      vertex -19.4268 55.0746 5
    endloop
  endfacet
  facet normal -0 0 1
    outer loop
      vertex -19.4541 55.5965 5
      vertex -19.448 55.2478 5
      vertex -19.4389 55.7703 5
    endloop
  endfacet
  facet normal 0 0 1
    outer loop
      vertex -19.448 55.2478 5
      vertex -19.4541 55.5965 5
      vertex -19.4572 55.422 5
    endloop
  endfacet
  facet normal 0 0 -1
    outer loop
      vertex 2.66953 50.9672 0
      vertex 2.61566 52.498 0
      vertex 2.66913 52.4531 0
    endloop
  endfacet
  facet normal 0 0 -1
    outer loop
      vertex 2.66953 50.9672 0
      vertex 2.55919 52.539 0
      vertex 2.61566 52.498 0
    endloop
  endfacet
  facet normal 0 0 -1
    outer loop
      vertex 2.66953 50.9672 0
      vertex 2.5 52.576 0
      vertex 2.55919 52.539 0
    endloop
  endfacet
  facet normal 0 0 -1
    outer loop
      vertex 2.66953 50.9672 0
      vertex 2.43837 52.6088 0
      vertex 2.5 52.576 0
    endloop
  endfacet
  facet normal 0 0 -1
    outer loop
      vertex 2.66953 50.9672 0
      vertex 2.37461 52.6372 0
      vertex 2.43837 52.6088 0
    endloop
  endfacet
  facet normal 0 0 -1
    outer loop
      vertex -4.49333 50.685 0
      vertex 2.66953 50.9672 0
      vertex 3.21394 47.8798 0
    endloop
  endfacet
  facet normal 0 0 -1
    outer loop
      vertex 2.66953 50.9672 0
      vertex 1.9651 52.7094 0
      vertex 2.37461 52.6372 0
    endloop
  endfacet
  facet normal 0 0 -1
    outer loop
      vertex 2.37461 52.6372 0
      vertex 1.9651 52.7094 0
      vertex 2.30902 52.6611 0
    endloop
  endfacet
  facet normal 0 0 -1
    outer loop
      vertex 2.30902 52.6611 0
      vertex 1.9651 52.7094 0
      vertex 2.24192 52.6803 0
    endloop
  endfacet
  facet normal 0 0 -1
    outer loop
      vertex 2.24192 52.6803 0
      vertex 1.9651 52.7094 0
      vertex 2.17365 52.6948 0
    endloop
  endfacet
  facet normal 0 0 -1
    outer loop
      vertex 2.17365 52.6948 0
      vertex 1.9651 52.7094 0
      vertex 2.10453 52.7045 0
    endloop
  endfacet
  facet normal 0 0 -1
    outer loop
      vertex 2.10453 52.7045 0
      vertex 1.9651 52.7094 0
      vertex 2.0349 52.7094 0
    endloop
  endfacet
  facet normal -0 0 -1
    outer loop
      vertex 2.66953 50.9672 0
      vertex -4.49333 50.685 0
      vertex 1.9651 52.7094 0
    endloop
  endfacet
  facet normal 0 0 -1
    outer loop
      vertex -4.49333 50.685 0
      vertex -15.0489 52.6431 0
      vertex 1.9651 52.7094 0
    endloop
  endfacet
  facet normal 0 0 -1
    outer loop
      vertex -15.3318 53.5684 0
      vertex -15.596 57.5624 0
      vertex -15.453 57.4623 0
    endloop
  endfacet
  facet normal 0 0 -1
    outer loop
      vertex -15.3318 53.5684 0
      vertex -15.7455 57.6522 0
      vertex -15.596 57.5624 0
    endloop
  endfacet
  facet normal 0 0 -1
    outer loop
      vertex -15.8055 50.6406 0
      vertex -15.0489 52.6431 0
      vertex -4.49333 50.685 0
    endloop
  endfacet
  facet normal 0 0 -1
    outer loop
      vertex -16.7444 51.3481 0
      vertex -15.0489 52.6431 0
      vertex -15.8055 50.6406 0
    endloop
  endfacet
  facet normal 0 0 -1
    outer loop
      vertex -17.2444 52.9837 0
      vertex -15.0489 52.6431 0
      vertex -16.7444 51.3481 0
    endloop
  endfacet
  facet normal 0 0 -1
    outer loop
      vertex -16.7444 51.3481 0
      vertex -15.8055 50.6406 0
      vertex -15.8752 50.6443 0
    endloop
  endfacet
  facet normal -0 0 -1
    outer loop
      vertex -15.3318 53.5684 0
      vertex -17.2444 52.9837 0
      vertex -15.7455 57.6522 0
    endloop
  endfacet
  facet normal 0 0 -1
    outer loop
      vertex -16.7444 51.3481 0
      vertex -15.8752 50.6443 0
      vertex -15.9445 50.6528 0
    endloop
  endfacet
  facet normal 0 0 -1
    outer loop
      vertex -16.7444 51.3481 0
      vertex -15.9445 50.6528 0
      vertex -16.013 50.6661 0
    endloop
  endfacet
  facet normal -0 0 -1
    outer loop
      vertex -15.7455 57.6522 0
      vertex -17.2444 52.9837 0
      vertex -15.901 57.7314 0
    endloop
  endfacet
  facet normal 0 0 -1
    outer loop
      vertex -16.7444 51.3481 0
      vertex -16.013 50.6661 0
      vertex -16.0804 50.6842 0
    endloop
  endfacet
  facet normal 0 0 -1
    outer loop
      vertex -16.7444 51.3481 0
      vertex -16.0804 50.6842 0
      vertex -16.1464 50.7069 0
    endloop
  endfacet
  facet normal 0 0 -1
    outer loop
      vertex -16.7444 51.3481 0
      vertex -16.1464 50.7069 0
      vertex -16.2107 50.7341 0
    endloop
  endfacet
  facet normal -0 0 -1
    outer loop
      vertex -15.901 57.7314 0
      vertex -17.2444 52.9837 0
      vertex -16.0616 57.7996 0
    endloop
  endfacet
  facet normal 0 0 -1
    outer loop
      vertex -16.7444 51.3481 0
      vertex -16.2107 50.7341 0
      vertex -16.2729 50.7658 0
    endloop
  endfacet
  facet normal 0 0 -1
    outer loop
      vertex -16.7444 51.3481 0
      vertex -16.2729 50.7658 0
      vertex -16.3327 50.8018 0
    endloop
  endfacet
  facet normal 0 0 -1
    outer loop
      vertex -16.7444 51.3481 0
      vertex -16.3327 50.8018 0
      vertex -16.3899 50.8418 0
    endloop
  endfacet
  facet normal -0 0 -1
    outer loop
      vertex -16.0616 57.7996 0
      vertex -17.2444 52.9837 0
      vertex -16.2266 57.8564 0
    endloop
  endfacet
  facet normal 0 0 -1
    outer loop
      vertex -16.7444 51.3481 0
      vertex -16.3899 50.8418 0
      vertex -16.4441 50.8857 0
    endloop
  endfacet
  facet normal 0 0 -1
    outer loop
      vertex -16.7444 51.3481 0
      vertex -16.4441 50.8857 0
      vertex -16.4952 50.9333 0
    endloop
  endfacet
  facet normal 0 0 -1
    outer loop
      vertex -16.7444 51.3481 0
      vertex -16.4952 50.9333 0
      vertex -16.5428 50.9844 0
    endloop
  endfacet
  facet normal -0 0 -1
    outer loop
      vertex -16.2266 57.8564 0
      vertex -17.2444 52.9837 0
      vertex -16.3952 57.9016 0
    endloop
  endfacet
  facet normal 0 0 -1
    outer loop
      vertex -16.7444 51.3481 0
      vertex -16.5428 50.9844 0
      vertex -16.5867 51.0386 0
    endloop
  endfacet
  facet normal 0 0 -1
    outer loop
      vertex -16.7444 51.3481 0
      vertex -16.5867 51.0386 0
      vertex -16.6267 51.0958 0
    endloop
  endfacet
  facet normal 0 0 -1
    outer loop
      vertex -16.7444 51.3481 0
      vertex -16.6267 51.0958 0
      vertex -16.6627 51.1556 0
    endloop
  endfacet
  facet normal 0 0 -1
    outer loop
      vertex -16.7444 51.3481 0
      vertex -16.6627 51.1556 0
      vertex -16.6944 51.2178 0
    endloop
  endfacet
  facet normal 0 0 -1
    outer loop
      vertex -16.7444 51.3481 0
      vertex -16.6944 51.2178 0
      vertex -16.7217 51.2821 0
    endloop
  endfacet
  facet normal 0 0 -1
    outer loop
      vertex -15.0489 52.6431 0
      vertex -17.2444 52.9837 0
      vertex -15.3318 53.5684 0
    endloop
  endfacet
  facet normal -0 0 -1
    outer loop
      vertex -16.3952 57.9016 0
      vertex -17.2444 52.9837 0
      vertex -16.5665 57.9349 0
    endloop
  endfacet
  facet normal -0 0 -1
    outer loop
      vertex -16.5665 57.9349 0
      vertex -17.2444 52.9837 0
      vertex -16.7397 57.9562 0
    endloop
  endfacet
  facet normal -0 0 -1
    outer loop
      vertex -16.7397 57.9562 0
      vertex -17.2444 52.9837 0
      vertex -16.9139 57.9653 0
    endloop
  endfacet
  facet normal 0 0 -1
    outer loop
      vertex -16.9139 57.9653 0
      vertex -17.2444 52.9837 0
      vertex -17.0884 57.9622 0
    endloop
  endfacet
  facet normal 0 0 -1
    outer loop
      vertex -17.2444 52.9837 0
      vertex -17.2622 57.947 0
      vertex -17.0884 57.9622 0
    endloop
  endfacet
  facet normal 0 0 -1
    outer loop
      vertex -17.5199 53.0298 0
      vertex -17.2444 52.9837 0
      vertex -17.3486 52.9965 0
    endloop
  endfacet
  facet normal 0 0 -1
    outer loop
      vertex -17.2444 52.9837 0
      vertex -17.4346 57.9197 0
      vertex -17.2622 57.947 0
    endloop
  endfacet
  facet normal 0 0 -1
    outer loop
      vertex -17.2444 52.9837 0
      vertex -17.5199 53.0298 0
      vertex -17.4346 57.9197 0
    endloop
  endfacet
  facet normal 0 0 -1
    outer loop
      vertex -17.5199 53.0298 0
      vertex -17.6046 57.8805 0
      vertex -17.4346 57.9197 0
    endloop
  endfacet
  facet normal 0 0 -1
    outer loop
      vertex -17.6885 53.0749 0
      vertex -17.6046 57.8805 0
      vertex -17.5199 53.0298 0
    endloop
  endfacet
  facet normal 0 0 -1
    outer loop
      vertex -17.6885 53.0749 0
      vertex -17.7715 57.8295 0
      vertex -17.6046 57.8805 0
    endloop
  endfacet
  facet normal 0 0 -1
    outer loop
      vertex -17.8535 53.1317 0
      vertex -17.7715 57.8295 0
      vertex -17.6885 53.0749 0
    endloop
  endfacet
  facet normal 0 0 -1
    outer loop
      vertex -17.8535 53.1317 0
      vertex -17.9344 57.7669 0
      vertex -17.7715 57.8295 0
    endloop
  endfacet
  facet normal 0 0 -1
    outer loop
      vertex -18.0141 53.1999 0
      vertex -17.9344 57.7669 0
      vertex -17.8535 53.1317 0
    endloop
  endfacet
  facet normal 0 0 -1
    outer loop
      vertex -18.0141 53.1999 0
      vertex -18.0925 57.6932 0
      vertex -17.9344 57.7669 0
    endloop
  endfacet
  facet normal 0 0 -1
    outer loop
      vertex -18.1696 53.2791 0
      vertex -18.0925 57.6932 0
      vertex -18.0141 53.1999 0
    endloop
  endfacet
  facet normal 0 0 -1
    outer loop
      vertex -18.1696 53.2791 0
      vertex -18.2452 57.6086 0
      vertex -18.0925 57.6932 0
    endloop
  endfacet
  facet normal 0 0 -1
    outer loop
      vertex -18.3192 53.369 0
      vertex -18.2452 57.6086 0
      vertex -18.1696 53.2791 0
    endloop
  endfacet
  facet normal 0 0 -1
    outer loop
      vertex -18.3192 53.369 0
      vertex -18.3915 57.5136 0
      vertex -18.2452 57.6086 0
    endloop
  endfacet
  facet normal 0 0 -1
    outer loop
      vertex -18.4621 53.4691 0
      vertex -18.3915 57.5136 0
      vertex -18.3192 53.369 0
    endloop
  endfacet
  facet normal 0 0 -1
    outer loop
      vertex -18.4621 53.4691 0
      vertex -18.5309 57.4085 0
      vertex -18.3915 57.5136 0
    endloop
  endfacet
  facet normal 0 0 -1
    outer loop
      vertex -18.5977 53.5789 0
      vertex -18.5309 57.4085 0
      vertex -18.4621 53.4691 0
    endloop
  endfacet
  facet normal 0 0 -1
    outer loop
      vertex -18.5977 53.5789 0
      vertex -18.6626 57.2941 0
      vertex -18.5309 57.4085 0
    endloop
  endfacet
  facet normal 0 0 -1
    outer loop
      vertex -18.7253 53.6979 0
      vertex -18.6626 57.2941 0
      vertex -18.5977 53.5789 0
    endloop
  endfacet
  facet normal 0 0 -1
    outer loop
      vertex -18.7253 53.6979 0
      vertex -18.7859 57.1707 0
      vertex -18.6626 57.2941 0
    endloop
  endfacet
  facet normal 0 0 -1
    outer loop
      vertex -18.8443 53.8255 0
      vertex -18.7859 57.1707 0
      vertex -18.7253 53.6979 0
    endloop
  endfacet
  facet normal 0 0 -1
    outer loop
      vertex -18.8443 53.8255 0
      vertex -18.9004 57.039 0
      vertex -18.7859 57.1707 0
    endloop
  endfacet
  facet normal 0 0 -1
    outer loop
      vertex -18.9541 53.9611 0
      vertex -18.9004 57.039 0
      vertex -18.8443 53.8255 0
    endloop
  endfacet
  facet normal 0 0 -1
    outer loop
      vertex -18.9541 53.9611 0
      vertex -19.0054 56.8996 0
      vertex -18.9004 57.039 0
    endloop
  endfacet
  facet normal 0 0 -1
    outer loop
      vertex -19.0542 54.1041 0
      vertex -19.0054 56.8996 0
      vertex -18.9541 53.9611 0
    endloop
  endfacet
  facet normal 0 0 -1
    outer loop
      vertex -19.0542 54.1041 0
      vertex -19.1005 56.7533 0
      vertex -19.0054 56.8996 0
    endloop
  endfacet
  facet normal 0 0 -1
    outer loop
      vertex -19.1441 54.2537 0
      vertex -19.1005 56.7533 0
      vertex -19.0542 54.1041 0
    endloop
  endfacet
  facet normal 0 0 -1
    outer loop
      vertex -19.1441 54.2537 0
      vertex -19.1851 56.6007 0
      vertex -19.1005 56.7533 0
    endloop
  endfacet
  facet normal 0 0 -1
    outer loop
      vertex -19.2233 54.4091 0
      vertex -19.1851 56.6007 0
      vertex -19.1441 54.2537 0
    endloop
  endfacet
  facet normal 0 0 -1
    outer loop
      vertex -19.2233 54.4091 0
      vertex -19.2588 56.4425 0
      vertex -19.1851 56.6007 0
    endloop
  endfacet
  facet normal 0 0 -1
    outer loop
      vertex -19.2915 54.5698 0
      vertex -19.2588 56.4425 0
      vertex -19.2233 54.4091 0
    endloop
  endfacet
  facet normal 0 0 -1
    outer loop
      vertex -19.2915 54.5698 0
      vertex -19.3214 56.2796 0
      vertex -19.2588 56.4425 0
    endloop
  endfacet
  facet normal 0 0 -1
    outer loop
      vertex -19.3483 54.7347 0
      vertex -19.3214 56.2796 0
      vertex -19.2915 54.5698 0
    endloop
  endfacet
  facet normal 0 0 -1
    outer loop
      vertex -19.3483 54.7347 0
      vertex -19.3724 56.1127 0
      vertex -19.3214 56.2796 0
    endloop
  endfacet
  facet normal 0 0 -1
    outer loop
      vertex -19.3935 54.9033 0
      vertex -19.3724 56.1127 0
      vertex -19.3483 54.7347 0
    endloop
  endfacet
  facet normal 0 0 -1
    outer loop
      vertex -19.3935 54.9033 0
      vertex -19.4116 55.9427 0
      vertex -19.3724 56.1127 0
    endloop
  endfacet
  facet normal 0 0 -1
    outer loop
      vertex -19.4268 55.0746 0
      vertex -19.4116 55.9427 0
      vertex -19.3935 54.9033 0
    endloop
  endfacet
  facet normal 0 0 -1
    outer loop
      vertex -19.4268 55.0746 0
      vertex -19.4389 55.7703 0
      vertex -19.4116 55.9427 0
    endloop
  endfacet
  facet normal 0 0 -1
    outer loop
      vertex -19.448 55.2478 0
      vertex -19.4389 55.7703 0
      vertex -19.4268 55.0746 0
    endloop
  endfacet
  facet normal 0 0 -1
    outer loop
      vertex -19.448 55.2478 0
      vertex -19.4541 55.5965 0
      vertex -19.4389 55.7703 0
    endloop
  endfacet
  facet normal 0 -0 -1
    outer loop
      vertex -19.4541 55.5965 0
      vertex -19.448 55.2478 0
      vertex -19.4572 55.422 0
    endloop
  endfacet
  facet normal 0 0 -1
    outer loop
      vertex 2.99756 51.6402 0
      vertex 2.99756 51.7798 0
      vertex 3 51.71 0
    endloop
  endfacet
  facet normal 0 0 -1
    outer loop
      vertex 2.99027 51.5708 0
      vertex 2.99756 51.7798 0
      vertex 2.99756 51.6402 0
    endloop
  endfacet
  facet normal 0 0 -1
    outer loop
      vertex 2.99027 51.5708 0
      vertex 2.99027 51.8492 0
      vertex 2.99756 51.7798 0
    endloop
  endfacet
  facet normal 0 0 -1
    outer loop
      vertex 2.97815 51.5021 0
      vertex 2.99027 51.8492 0
      vertex 2.99027 51.5708 0
    endloop
  endfacet
  facet normal 0 0 -1
    outer loop
      vertex 2.97815 51.5021 0
      vertex 2.97815 51.9179 0
      vertex 2.99027 51.8492 0
    endloop
  endfacet
  facet normal 0 0 -1
    outer loop
      vertex 2.96126 51.4344 0
      vertex 2.97815 51.9179 0
      vertex 2.97815 51.5021 0
    endloop
  endfacet
  facet normal 0 0 -1
    outer loop
      vertex 2.96126 51.4344 0
      vertex 2.96126 51.9856 0
      vertex 2.97815 51.9179 0
    endloop
  endfacet
  facet normal 0 0 -1
    outer loop
      vertex 2.93969 51.368 0
      vertex 2.96126 51.9856 0
      vertex 2.96126 51.4344 0
    endloop
  endfacet
  facet normal 0 0 -1
    outer loop
      vertex 2.93969 51.368 0
      vertex 2.93969 52.052 0
      vertex 2.96126 51.9856 0
    endloop
  endfacet
  facet normal 0 0 -1
    outer loop
      vertex 2.91354 51.3033 0
      vertex 2.93969 52.052 0
      vertex 2.93969 51.368 0
    endloop
  endfacet
  facet normal 0 0 -1
    outer loop
      vertex 2.91354 51.3033 0
      vertex 2.91354 52.1167 0
      vertex 2.93969 52.052 0
    endloop
  endfacet
  facet normal 0 0 -1
    outer loop
      vertex 2.88295 51.2405 0
      vertex 2.91354 52.1167 0
      vertex 2.91354 51.3033 0
    endloop
  endfacet
  facet normal 0 0 -1
    outer loop
      vertex 2.88295 51.2405 0
      vertex 2.88295 52.1795 0
      vertex 2.91354 52.1167 0
    endloop
  endfacet
  facet normal 0 0 -1
    outer loop
      vertex 2.84805 51.1801 0
      vertex 2.88295 52.1795 0
      vertex 2.88295 51.2405 0
    endloop
  endfacet
  facet normal 0 0 -1
    outer loop
      vertex 2.84805 51.1801 0
      vertex 2.84805 52.2399 0
      vertex 2.88295 52.1795 0
    endloop
  endfacet
  facet normal 0 0 -1
    outer loop
      vertex 2.80902 51.1222 0
      vertex 2.84805 52.2399 0
      vertex 2.84805 51.1801 0
    endloop
  endfacet
  facet normal 0 0 -1
    outer loop
      vertex 2.80902 51.1222 0
      vertex 2.80902 52.2978 0
      vertex 2.84805 52.2399 0
    endloop
  endfacet
  facet normal 0 0 -1
    outer loop
      vertex 2.76604 51.0672 0
      vertex 2.80902 52.2978 0
      vertex 2.80902 51.1222 0
    endloop
  endfacet
  facet normal 0 0 -1
    outer loop
      vertex 2.76604 51.0672 0
      vertex 2.76604 52.3528 0
      vertex 2.80902 52.2978 0
    endloop
  endfacet
  facet normal 0 0 -1
    outer loop
      vertex 2.71934 51.0153 0
      vertex 2.76604 52.3528 0
      vertex 2.76604 51.0672 0
    endloop
  endfacet
  facet normal 0 0 -1
    outer loop
      vertex 2.71934 51.0153 0
      vertex 2.71934 52.4047 0
      vertex 2.76604 52.3528 0
    endloop
  endfacet
  facet normal 0 0 -1
    outer loop
      vertex 2.66953 50.9672 0
      vertex 2.71934 52.4047 0
      vertex 2.71934 51.0153 0
    endloop
  endfacet
  facet normal -0 0 -1
    outer loop
      vertex 2.71934 52.4047 0
      vertex 2.66953 50.9672 0
      vertex 2.66913 52.4531 0
    endloop
  endfacet
  facet normal 0 0 -1
    outer loop
      vertex -14.461 55.3348 0
      vertex -14.4671 55.6836 0
      vertex -14.4579 55.5093 0
    endloop
  endfacet
  facet normal 0 0 -1
    outer loop
      vertex -14.4762 55.161 0
      vertex -14.4671 55.6836 0
      vertex -14.461 55.3348 0
    endloop
  endfacet
  facet normal 0 0 -1
    outer loop
      vertex -14.4762 55.161 0
      vertex -14.4883 55.8568 0
      vertex -14.4671 55.6836 0
    endloop
  endfacet
  facet normal 0 0 -1
    outer loop
      vertex -14.5035 54.9887 0
      vertex -14.4883 55.8568 0
      vertex -14.4762 55.161 0
    endloop
  endfacet
  facet normal 0 0 -1
    outer loop
      vertex -14.5035 54.9887 0
      vertex -14.5216 56.0281 0
      vertex -14.4883 55.8568 0
    endloop
  endfacet
  facet normal 0 0 -1
    outer loop
      vertex -14.5427 54.8186 0
      vertex -14.5216 56.0281 0
      vertex -14.5035 54.9887 0
    endloop
  endfacet
  facet normal 0 0 -1
    outer loop
      vertex -14.5427 54.8186 0
      vertex -14.5668 56.1966 0
      vertex -14.5216 56.0281 0
    endloop
  endfacet
  facet normal 0 0 -1
    outer loop
      vertex -14.5938 54.6518 0
      vertex -14.5668 56.1966 0
      vertex -14.5427 54.8186 0
    endloop
  endfacet
  facet normal 0 0 -1
    outer loop
      vertex -14.5938 54.6518 0
      vertex -14.6236 56.3616 0
      vertex -14.5668 56.1966 0
    endloop
  endfacet
  facet normal 0 0 -1
    outer loop
      vertex -14.6563 54.4888 0
      vertex -14.6236 56.3616 0
      vertex -14.5938 54.6518 0
    endloop
  endfacet
  facet normal 0 0 -1
    outer loop
      vertex -14.6563 54.4888 0
      vertex -14.6918 56.5222 0
      vertex -14.6236 56.3616 0
    endloop
  endfacet
  facet normal 0 0 -1
    outer loop
      vertex -14.73 54.3307 0
      vertex -14.6918 56.5222 0
      vertex -14.6563 54.4888 0
    endloop
  endfacet
  facet normal 0 0 -1
    outer loop
      vertex -14.73 54.3307 0
      vertex -14.771 56.6777 0
      vertex -14.6918 56.5222 0
    endloop
  endfacet
  facet normal 0 0 -1
    outer loop
      vertex -14.8146 54.1781 0
      vertex -14.771 56.6777 0
      vertex -14.73 54.3307 0
    endloop
  endfacet
  facet normal 0 0 -1
    outer loop
      vertex -14.8146 54.1781 0
      vertex -14.8609 56.8273 0
      vertex -14.771 56.6777 0
    endloop
  endfacet
  facet normal 0 0 -1
    outer loop
      vertex -14.9097 54.0317 0
      vertex -14.8609 56.8273 0
      vertex -14.8146 54.1781 0
    endloop
  endfacet
  facet normal 0 0 -1
    outer loop
      vertex -14.9097 54.0317 0
      vertex -14.961 56.9702 0
      vertex -14.8609 56.8273 0
    endloop
  endfacet
  facet normal 0 0 -1
    outer loop
      vertex -15.0147 53.8924 0
      vertex -14.961 56.9702 0
      vertex -14.9097 54.0317 0
    endloop
  endfacet
  facet normal 0 0 -1
    outer loop
      vertex -15.0147 53.8924 0
      vertex -15.0708 57.1058 0
      vertex -14.961 56.9702 0
    endloop
  endfacet
  facet normal 0 0 -1
    outer loop
      vertex -15.1292 53.7607 0
      vertex -15.0708 57.1058 0
      vertex -15.0147 53.8924 0
    endloop
  endfacet
  facet normal 0 0 -1
    outer loop
      vertex -15.1292 53.7607 0
      vertex -15.1898 57.2334 0
      vertex -15.0708 57.1058 0
    endloop
  endfacet
  facet normal 0 0 -1
    outer loop
      vertex -15.3318 53.5684 0
      vertex -15.1292 53.7607 0
      vertex -15.2526 53.6373 0
    endloop
  endfacet
  facet normal -0 0 -1
    outer loop
      vertex -15.1292 53.7607 0
      vertex -15.3318 53.5684 0
      vertex -15.1898 57.2334 0
    endloop
  endfacet
  facet normal -0 0 -1
    outer loop
      vertex -15.1898 57.2334 0
      vertex -15.3318 53.5684 0
      vertex -15.3174 57.3524 0
    endloop
  endfacet
  facet normal -0 0 -1
    outer loop
      vertex -15.3174 57.3524 0
      vertex -15.3318 53.5684 0
      vertex -15.453 57.4623 0
    endloop
  endfacet
  facet normal 0.994528 0.104468 0
    outer loop
      vertex 2.99756 51.7798 5
      vertex 2.99027 51.8492 0
      vertex 2.99027 51.8492 5
    endloop
  endfacet
  facet normal 0.994528 0.104468 0
    outer loop
      vertex 2.99027 51.8492 0
      vertex 2.99756 51.7798 5
      vertex 2.99756 51.7798 0
    endloop
  endfacet
  facet normal -0.05301 -0.998594 0
    outer loop
      vertex -15.8752 50.6443 0
      vertex -15.8055 50.6406 5
      vertex -15.8752 50.6443 5
    endloop
  endfacet
  facet normal -0.05301 -0.998594 -0
    outer loop
      vertex -15.8055 50.6406 5
      vertex -15.8752 50.6443 0
      vertex -15.8055 50.6406 0
    endloop
  endfacet
  facet normal -0.00389676 0.999992 0
    outer loop
      vertex 1.9651 52.7094 0
      vertex -15.0489 52.6431 5
      vertex 1.9651 52.7094 5
    endloop
  endfacet
  facet normal -0.00389676 0.999992 0
    outer loop
      vertex -15.0489 52.6431 5
      vertex 1.9651 52.7094 0
      vertex -15.0489 52.6431 0
    endloop
  endfacet
  facet normal 0.00392495 -0.999992 0
    outer loop
      vertex -15.8055 50.6406 0
      vertex -4.49333 50.685 5
      vertex -15.8055 50.6406 5
    endloop
  endfacet
  facet normal 0.00392495 -0.999992 0
    outer loop
      vertex -4.49333 50.685 5
      vertex -15.8055 50.6406 0
      vertex -4.49333 50.685 0
    endloop
  endfacet
  facet normal 0.0701984 0.997533 -0
    outer loop
      vertex 2.10453 52.7045 0
      vertex 2.0349 52.7094 5
      vertex 2.10453 52.7045 5
    endloop
  endfacet
  facet normal 0.0701984 0.997533 0
    outer loop
      vertex 2.0349 52.7094 5
      vertex 2.10453 52.7045 0
      vertex 2.0349 52.7094 0
    endloop
  endfacet
  facet normal 0 1 -0
    outer loop
      vertex 2.0349 52.7094 0
      vertex 1.9651 52.7094 5
      vertex 2.0349 52.7094 5
    endloop
  endfacet
  facet normal 0 1 0
    outer loop
      vertex 1.9651 52.7094 5
      vertex 2.0349 52.7094 0
      vertex 1.9651 52.7094 0
    endloop
  endfacet
  facet normal 0.743365 0.668886 0
    outer loop
      vertex 2.76604 52.3528 5
      vertex 2.71934 52.4047 0
      vertex 2.71934 52.4047 5
    endloop
  endfacet
  facet normal 0.743365 0.668886 0
    outer loop
      vertex 2.71934 52.4047 0
      vertex 2.76604 52.3528 5
      vertex 2.76604 52.3528 0
    endloop
  endfacet
  facet normal 0.694651 -0.719347 0
    outer loop
      vertex 2.66953 50.9672 0
      vertex 2.71934 51.0153 5
      vertex 2.66953 50.9672 5
    endloop
  endfacet
  facet normal 0.694651 -0.719347 0
    outer loop
      vertex 2.71934 51.0153 5
      vertex 2.66953 50.9672 0
      vertex 2.71934 51.0153 0
    endloop
  endfacet
  facet normal 0.865851 -0.500301 0
    outer loop
      vertex 2.84805 51.1801 5
      vertex 2.88295 51.2405 0
      vertex 2.88295 51.2405 5
    endloop
  endfacet
  facet normal 0.865851 -0.500301 0
    outer loop
      vertex 2.88295 51.2405 0
      vertex 2.84805 51.1801 5
      vertex 2.84805 51.1801 0
    endloop
  endfacet
  facet normal 0.927137 -0.374724 0
    outer loop
      vertex 2.91354 51.3033 5
      vertex 2.93969 51.368 0
      vertex 2.93969 51.368 5
    endloop
  endfacet
  facet normal 0.927137 -0.374724 0
    outer loop
      vertex 2.93969 51.368 0
      vertex 2.91354 51.3033 5
      vertex 2.91354 51.3033 0
    endloop
  endfacet
  facet normal 0.99939 0.0349357 0
    outer loop
      vertex 3 51.71 5
      vertex 2.99756 51.7798 0
      vertex 2.99756 51.7798 5
    endloop
  endfacet
  facet normal 0.99939 0.0349357 0
    outer loop
      vertex 2.99756 51.7798 0
      vertex 3 51.71 5
      vertex 3 51.71 0
    endloop
  endfacet
  facet normal 0.97026 0.242063 0
    outer loop
      vertex 2.97815 51.9179 5
      vertex 2.96126 51.9856 0
      vertex 2.96126 51.9856 5
    endloop
  endfacet
  facet normal 0.97026 0.242063 0
    outer loop
      vertex 2.96126 51.9856 0
      vertex 2.97815 51.9179 5
      vertex 2.97815 51.9179 0
    endloop
  endfacet
  facet normal -0.389593 -0.920987 0
    outer loop
      vertex -16.2107 50.7341 0
      vertex -16.1464 50.7069 5
      vertex -16.2107 50.7341 5
    endloop
  endfacet
  facet normal -0.389593 -0.920987 -0
    outer loop
      vertex -16.1464 50.7069 5
      vertex -16.2107 50.7341 0
      vertex -16.1464 50.7069 0
    endloop
  endfacet
  facet normal -0.515759 -0.856734 0
    outer loop
      vertex -16.3327 50.8018 0
      vertex -16.2729 50.7658 5
      vertex -16.3327 50.8018 5
    endloop
  endfacet
  facet normal -0.515759 -0.856734 -0
    outer loop
      vertex -16.2729 50.7658 5
      vertex -16.3327 50.8018 0
      vertex -16.2729 50.7658 0
    endloop
  endfacet
  facet normal -0.32524 -0.945632 0
    outer loop
      vertex -16.1464 50.7069 0
      vertex -16.0804 50.6842 5
      vertex -16.1464 50.7069 5
    endloop
  endfacet
  facet normal -0.32524 -0.945632 -0
    outer loop
      vertex -16.0804 50.6842 5
      vertex -16.1464 50.7069 0
      vertex -16.0804 50.6842 0
    endloop
  endfacet
  facet normal -0.777078 -0.629404 0
    outer loop
      vertex -16.5428 50.9844 0
      vertex -16.5867 51.0386 5
      vertex -16.5867 51.0386 0
    endloop
  endfacet
  facet normal -0.777078 -0.629404 0
    outer loop
      vertex -16.5867 51.0386 5
      vertex -16.5428 50.9844 0
      vertex -16.5428 50.9844 5
    endloop
  endfacet
  facet normal 0.899017 -0.437913 0
    outer loop
      vertex 2.88295 51.2405 5
      vertex 2.91354 51.3033 0
      vertex 2.91354 51.3033 5
    endloop
  endfacet
  facet normal 0.899017 -0.437913 0
    outer loop
      vertex 2.91354 51.3033 0
      vertex 2.88295 51.2405 5
      vertex 2.88295 51.2405 0
    endloop
  endfacet
  facet normal 0.829197 -0.558956 0
    outer loop
      vertex 2.80902 51.1222 5
      vertex 2.84805 51.1801 0
      vertex 2.84805 51.1801 5
    endloop
  endfacet
  facet normal 0.829197 -0.558956 0
    outer loop
      vertex 2.84805 51.1801 0
      vertex 2.80902 51.1222 5
      vertex 2.80902 51.1222 0
    endloop
  endfacet
  facet normal 0.743365 -0.668886 0
    outer loop
      vertex 2.71934 51.0153 5
      vertex 2.76604 51.0672 0
      vertex 2.76604 51.0672 5
    endloop
  endfacet
  facet normal 0.743365 -0.668886 0
    outer loop
      vertex 2.76604 51.0672 0
      vertex 2.71934 51.0153 5
      vertex 2.71934 51.0153 0
    endloop
  endfacet
  facet normal 0.951076 -0.308957 0
    outer loop
      vertex 2.93969 51.368 5
      vertex 2.96126 51.4344 0
      vertex 2.96126 51.4344 5
    endloop
  endfacet
  facet normal 0.951076 -0.308957 0
    outer loop
      vertex 2.96126 51.4344 0
      vertex 2.93969 51.368 5
      vertex 2.93969 51.368 0
    endloop
  endfacet
  facet normal 0.984792 -0.173736 0
    outer loop
      vertex 2.97815 51.5021 5
      vertex 2.99027 51.5708 0
      vertex 2.99027 51.5708 5
    endloop
  endfacet
  facet normal 0.984792 -0.173736 0
    outer loop
      vertex 2.99027 51.5708 0
      vertex 2.97815 51.5021 5
      vertex 2.97815 51.5021 0
    endloop
  endfacet
  facet normal 0.994528 -0.104468 0
    outer loop
      vertex 2.99027 51.5708 5
      vertex 2.99756 51.6402 0
      vertex 2.99756 51.6402 5
    endloop
  endfacet
  facet normal 0.994528 -0.104468 0
    outer loop
      vertex 2.99756 51.6402 0
      vertex 2.99027 51.5708 5
      vertex 2.99027 51.5708 0
    endloop
  endfacet
  facet normal 0.99939 -0.0349357 0
    outer loop
      vertex 2.99756 51.6402 5
      vertex 3 51.71 0
      vertex 3 51.71 5
    endloop
  endfacet
  facet normal 0.99939 -0.0349357 0
    outer loop
      vertex 3 51.71 0
      vertex 2.99756 51.6402 5
      vertex 2.99756 51.6402 0
    endloop
  endfacet
  facet normal 0.984792 0.173736 0
    outer loop
      vertex 2.99027 51.8492 5
      vertex 2.97815 51.9179 0
      vertex 2.97815 51.9179 5
    endloop
  endfacet
  facet normal 0.984792 0.173736 0
    outer loop
      vertex 2.97815 51.9179 0
      vertex 2.99027 51.8492 5
      vertex 2.99027 51.8492 0
    endloop
  endfacet
  facet normal 0.927137 0.374724 0
    outer loop
      vertex 2.93969 52.052 5
      vertex 2.91354 52.1167 0
      vertex 2.91354 52.1167 5
    endloop
  endfacet
  facet normal 0.927137 0.374724 0
    outer loop
      vertex 2.91354 52.1167 0
      vertex 2.93969 52.052 5
      vertex 2.93969 52.052 0
    endloop
  endfacet
  facet normal 0.951076 0.308957 0
    outer loop
      vertex 2.96126 51.9856 5
      vertex 2.93969 52.052 0
      vertex 2.93969 52.052 5
    endloop
  endfacet
  facet normal 0.951076 0.308957 0
    outer loop
      vertex 2.93969 52.052 0
      vertex 2.96126 51.9856 5
      vertex 2.96126 51.9856 0
    endloop
  endfacet
  facet normal 0.899017 0.437913 0
    outer loop
      vertex 2.91354 52.1167 5
      vertex 2.88295 52.1795 0
      vertex 2.88295 52.1795 5
    endloop
  endfacet
  facet normal 0.899017 0.437913 0
    outer loop
      vertex 2.88295 52.1795 0
      vertex 2.91354 52.1167 5
      vertex 2.91354 52.1167 0
    endloop
  endfacet
  facet normal 0.787946 0.615744 0
    outer loop
      vertex 2.80902 52.2978 5
      vertex 2.76604 52.3528 0
      vertex 2.76604 52.3528 5
    endloop
  endfacet
  facet normal 0.787946 0.615744 0
    outer loop
      vertex 2.76604 52.3528 0
      vertex 2.80902 52.2978 5
      vertex 2.80902 52.2978 0
    endloop
  endfacet
  facet normal 0.865851 0.500301 0
    outer loop
      vertex 2.88295 52.1795 5
      vertex 2.84805 52.2399 0
      vertex 2.84805 52.2399 5
    endloop
  endfacet
  facet normal 0.865851 0.500301 0
    outer loop
      vertex 2.84805 52.2399 0
      vertex 2.88295 52.1795 5
      vertex 2.88295 52.1795 0
    endloop
  endfacet
  facet normal 0.2751 0.961416 -0
    outer loop
      vertex 2.30902 52.6611 0
      vertex 2.24192 52.6803 5
      vertex 2.30902 52.6611 5
    endloop
  endfacet
  facet normal 0.2751 0.961416 0
    outer loop
      vertex 2.24192 52.6803 5
      vertex 2.30902 52.6611 0
      vertex 2.24192 52.6803 0
    endloop
  endfacet
  facet normal 0.207758 0.97818 -0
    outer loop
      vertex 2.24192 52.6803 0
      vertex 2.17365 52.6948 5
      vertex 2.24192 52.6803 5
    endloop
  endfacet
  facet normal 0.207758 0.97818 0
    outer loop
      vertex 2.17365 52.6948 5
      vertex 2.24192 52.6803 0
      vertex 2.17365 52.6948 0
    endloop
  endfacet
  facet normal 0.530063 0.847958 -0
    outer loop
      vertex 2.55919 52.539 0
      vertex 2.5 52.576 5
      vertex 2.55919 52.539 5
    endloop
  endfacet
  facet normal 0.530063 0.847958 0
    outer loop
      vertex 2.5 52.576 5
      vertex 2.55919 52.539 0
      vertex 2.5 52.576 0
    endloop
  endfacet
  facet normal 0.587524 0.809207 -0
    outer loop
      vertex 2.61566 52.498 0
      vertex 2.55919 52.539 5
      vertex 2.61566 52.498 5
    endloop
  endfacet
  facet normal 0.587524 0.809207 0
    outer loop
      vertex 2.55919 52.539 5
      vertex 2.61566 52.498 0
      vertex 2.55919 52.539 0
    endloop
  endfacet
  facet normal -0.573078 -0.819501 0
    outer loop
      vertex -16.3899 50.8418 0
      vertex -16.3327 50.8018 5
      vertex -16.3899 50.8418 5
    endloop
  endfacet
  facet normal -0.573078 -0.819501 -0
    outer loop
      vertex -16.3327 50.8018 5
      vertex -16.3899 50.8418 0
      vertex -16.3327 50.8018 0
    endloop
  endfacet
  facet normal -0.681604 -0.731722 0
    outer loop
      vertex -16.4952 50.9333 0
      vertex -16.4441 50.8857 5
      vertex -16.4952 50.9333 5
    endloop
  endfacet
  facet normal -0.681604 -0.731722 -0
    outer loop
      vertex -16.4441 50.8857 5
      vertex -16.4952 50.9333 0
      vertex -16.4441 50.8857 0
    endloop
  endfacet
  facet normal -0.629404 -0.777078 0
    outer loop
      vertex -16.4441 50.8857 0
      vertex -16.3899 50.8418 5
      vertex -16.4441 50.8857 5
    endloop
  endfacet
  facet normal -0.629404 -0.777078 -0
    outer loop
      vertex -16.3899 50.8418 5
      vertex -16.4441 50.8857 0
      vertex -16.3899 50.8418 0
    endloop
  endfacet
  facet normal -0.454076 -0.890963 0
    outer loop
      vertex -16.2729 50.7658 0
      vertex -16.2107 50.7341 5
      vertex -16.2729 50.7658 5
    endloop
  endfacet
  facet normal -0.454076 -0.890963 -0
    outer loop
      vertex -16.2107 50.7341 5
      vertex -16.2729 50.7658 0
      vertex -16.2107 50.7341 0
    endloop
  endfacet
  facet normal -0.259357 -0.965782 0
    outer loop
      vertex -16.0804 50.6842 0
      vertex -16.013 50.6661 5
      vertex -16.0804 50.6842 5
    endloop
  endfacet
  facet normal -0.259357 -0.965782 -0
    outer loop
      vertex -16.013 50.6661 5
      vertex -16.0804 50.6842 0
      vertex -16.013 50.6661 0
    endloop
  endfacet
  facet normal -0.121743 -0.992562 0
    outer loop
      vertex -15.9445 50.6528 0
      vertex -15.8752 50.6443 5
      vertex -15.9445 50.6528 5
    endloop
  endfacet
  facet normal -0.121743 -0.992562 -0
    outer loop
      vertex -15.8752 50.6443 5
      vertex -15.9445 50.6528 0
      vertex -15.8752 50.6443 0
    endloop
  endfacet
  facet normal -0.190601 -0.981668 0
    outer loop
      vertex -16.013 50.6661 0
      vertex -15.9445 50.6528 5
      vertex -16.013 50.6661 5
    endloop
  endfacet
  facet normal -0.190601 -0.981668 -0
    outer loop
      vertex -15.9445 50.6528 5
      vertex -16.013 50.6661 0
      vertex -15.9445 50.6528 0
    endloop
  endfacet
  facet normal -0.819501 -0.573078 0
    outer loop
      vertex -16.5867 51.0386 0
      vertex -16.6267 51.0958 5
      vertex -16.6267 51.0958 0
    endloop
  endfacet
  facet normal -0.819501 -0.573078 0
    outer loop
      vertex -16.6267 51.0958 5
      vertex -16.5867 51.0386 0
      vertex -16.5867 51.0386 5
    endloop
  endfacet
  facet normal -0.890963 -0.454076 0
    outer loop
      vertex -16.6627 51.1556 0
      vertex -16.6944 51.2178 5
      vertex -16.6944 51.2178 0
    endloop
  endfacet
  facet normal -0.890963 -0.454076 0
    outer loop
      vertex -16.6944 51.2178 5
      vertex -16.6627 51.1556 0
      vertex -16.6627 51.1556 5
    endloop
  endfacet
  facet normal -0.856734 -0.515759 0
    outer loop
      vertex -16.6267 51.0958 0
      vertex -16.6627 51.1556 5
      vertex -16.6627 51.1556 0
    endloop
  endfacet
  facet normal -0.856734 -0.515759 0
    outer loop
      vertex -16.6627 51.1556 5
      vertex -16.6267 51.0958 0
      vertex -16.6267 51.0958 5
    endloop
  endfacet
  facet normal -0.731722 -0.681604 0
    outer loop
      vertex -16.4952 50.9333 0
      vertex -16.5428 50.9844 5
      vertex -16.5428 50.9844 0
    endloop
  endfacet
  facet normal -0.731722 -0.681604 0
    outer loop
      vertex -16.5428 50.9844 5
      vertex -16.4952 50.9333 0
      vertex -16.4952 50.9333 5
    endloop
  endfacet
  facet normal -0.920473 -0.390807 0
    outer loop
      vertex -16.6944 51.2178 0
      vertex -16.7217 51.2821 5
      vertex -16.7217 51.2821 0
    endloop
  endfacet
  facet normal -0.920473 -0.390807 0
    outer loop
      vertex -16.7217 51.2821 5
      vertex -16.6944 51.2178 0
      vertex -16.6944 51.2178 5
    endloop
  endfacet
  facet normal -0.945632 -0.32524 0
    outer loop
      vertex -16.7217 51.2821 0
      vertex -16.7444 51.3481 5
      vertex -16.7444 51.3481 0
    endloop
  endfacet
  facet normal -0.945632 -0.32524 0
    outer loop
      vertex -16.7444 51.3481 5
      vertex -16.7217 51.2821 0
      vertex -16.7217 51.2821 5
    endloop
  endfacet
  facet normal 0.787946 -0.615744 0
    outer loop
      vertex 2.76604 51.0672 5
      vertex 2.80902 51.1222 0
      vertex 2.80902 51.1222 5
    endloop
  endfacet
  facet normal 0.787946 -0.615744 0
    outer loop
      vertex 2.80902 51.1222 0
      vertex 2.76604 51.0672 5
      vertex 2.76604 51.0672 0
    endloop
  endfacet
  facet normal 0.97026 -0.242063 0
    outer loop
      vertex 2.96126 51.4344 5
      vertex 2.97815 51.5021 0
      vertex 2.97815 51.5021 5
    endloop
  endfacet
  facet normal 0.97026 -0.242063 0
    outer loop
      vertex 2.97815 51.5021 0
      vertex 2.96126 51.4344 5
      vertex 2.96126 51.4344 0
    endloop
  endfacet
  facet normal 0.829197 0.558956 0
    outer loop
      vertex 2.84805 52.2399 5
      vertex 2.80902 52.2978 0
      vertex 2.80902 52.2978 5
    endloop
  endfacet
  facet normal 0.829197 0.558956 0
    outer loop
      vertex 2.80902 52.2978 0
      vertex 2.84805 52.2399 5
      vertex 2.84805 52.2399 0
    endloop
  endfacet
  facet normal 0.342364 0.939567 -0
    outer loop
      vertex 2.37461 52.6372 0
      vertex 2.30902 52.6611 5
      vertex 2.37461 52.6372 5
    endloop
  endfacet
  facet normal 0.342364 0.939567 0
    outer loop
      vertex 2.30902 52.6611 5
      vertex 2.37461 52.6372 0
      vertex 2.30902 52.6611 0
    endloop
  endfacet
  facet normal 0.406883 0.91348 -0
    outer loop
      vertex 2.43837 52.6088 0
      vertex 2.37461 52.6372 5
      vertex 2.43837 52.6088 5
    endloop
  endfacet
  facet normal 0.406883 0.91348 0
    outer loop
      vertex 2.37461 52.6372 5
      vertex 2.43837 52.6088 0
      vertex 2.37461 52.6372 0
    endloop
  endfacet
  facet normal 0.694011 0.719965 -0
    outer loop
      vertex 2.71934 52.4047 0
      vertex 2.66913 52.4531 5
      vertex 2.71934 52.4047 5
    endloop
  endfacet
  facet normal 0.694011 0.719965 0
    outer loop
      vertex 2.66913 52.4531 5
      vertex 2.71934 52.4047 0
      vertex 2.66913 52.4531 0
    endloop
  endfacet
  facet normal 0.643068 0.765809 -0
    outer loop
      vertex 2.66913 52.4531 0
      vertex 2.61566 52.498 5
      vertex 2.66913 52.4531 5
    endloop
  endfacet
  facet normal 0.643068 0.765809 0
    outer loop
      vertex 2.61566 52.498 5
      vertex 2.66913 52.4531 0
      vertex 2.61566 52.498 0
    endloop
  endfacet
  facet normal 0.138974 0.990296 -0
    outer loop
      vertex 2.17365 52.6948 0
      vertex 2.10453 52.7045 5
      vertex 2.17365 52.6948 5
    endloop
  endfacet
  facet normal 0.138974 0.990296 0
    outer loop
      vertex 2.10453 52.7045 5
      vertex 2.17365 52.6948 0
      vertex 2.10453 52.7045 0
    endloop
  endfacet
  facet normal 0.469815 0.882765 -0
    outer loop
      vertex 2.5 52.576 0
      vertex 2.43837 52.6088 5
      vertex 2.5 52.576 5
    endloop
  endfacet
  facet normal 0.469815 0.882765 0
    outer loop
      vertex 2.43837 52.6088 5
      vertex 2.5 52.576 0
      vertex 2.43837 52.6088 0
    endloop
  endfacet
  facet normal -0.956313 -0.292343 0
    outer loop
      vertex -16.7444 51.3481 0
      vertex -17.2444 52.9837 5
      vertex -17.2444 52.9837 0
    endloop
  endfacet
  facet normal -0.956313 -0.292343 0
    outer loop
      vertex -17.2444 52.9837 5
      vertex -16.7444 51.3481 0
      vertex -16.7444 51.3481 5
    endloop
  endfacet
  facet normal 0.956303 0.292379 0
    outer loop
      vertex -15.0489 52.6431 5
      vertex -15.3318 53.5684 0
      vertex -15.3318 53.5684 5
    endloop
  endfacet
  facet normal 0.956303 0.292379 0
    outer loop
      vertex -15.3318 53.5684 0
      vertex -15.0489 52.6431 5
      vertex -15.0489 52.6431 0
    endloop
  endfacet
  facet normal 0.390874 0.920444 -0
    outer loop
      vertex -15.901 57.7314 0
      vertex -16.0616 57.7996 5
      vertex -15.901 57.7314 5
    endloop
  endfacet
  facet normal 0.390874 0.920444 0
    outer loop
      vertex -16.0616 57.7996 5
      vertex -15.901 57.7314 0
      vertex -16.0616 57.7996 0
    endloop
  endfacet
  facet normal -0.655781 0.754951 0
    outer loop
      vertex -18.5309 57.4085 0
      vertex -18.6626 57.2941 5
      vertex -18.5309 57.4085 5
    endloop
  endfacet
  facet normal -0.655781 0.754951 0
    outer loop
      vertex -18.6626 57.2941 5
      vertex -18.5309 57.4085 0
      vertex -18.6626 57.2941 0
    endloop
  endfacet
  facet normal -0.996197 0.0871243 0
    outer loop
      vertex -19.4541 55.5965 0
      vertex -19.4389 55.7703 5
      vertex -19.4389 55.7703 0
    endloop
  endfacet
  facet normal -0.996197 0.0871243 0
    outer loop
      vertex -19.4389 55.7703 5
      vertex -19.4541 55.5965 0
      vertex -19.4541 55.5965 5
    endloop
  endfacet
  facet normal 0.996197 -0.0871243 0
    outer loop
      vertex -14.4762 55.161 5
      vertex -14.461 55.3348 0
      vertex -14.461 55.3348 5
    endloop
  endfacet
  facet normal 0.996197 -0.0871243 0
    outer loop
      vertex -14.461 55.3348 0
      vertex -14.4762 55.161 5
      vertex -14.4762 55.161 0
    endloop
  endfacet
  facet normal -0.121924 -0.992539 0
    outer loop
      vertex -17.3486 52.9965 0
      vertex -17.2444 52.9837 5
      vertex -17.3486 52.9965 5
    endloop
  endfacet
  facet normal -0.121924 -0.992539 -0
    outer loop
      vertex -17.2444 52.9837 5
      vertex -17.3486 52.9965 0
      vertex -17.2444 52.9837 0
    endloop
  endfacet
  facet normal 0.731322 0.682032 0
    outer loop
      vertex -15.0708 57.1058 5
      vertex -15.1898 57.2334 0
      vertex -15.1898 57.2334 5
    endloop
  endfacet
  facet normal 0.731322 0.682032 0
    outer loop
      vertex -15.1898 57.2334 0
      vertex -15.0708 57.1058 5
      vertex -15.0708 57.1058 0
    endloop
  endfacet
  facet normal 0.682032 0.731322 -0
    outer loop
      vertex -15.1898 57.2334 0
      vertex -15.3174 57.3524 5
      vertex -15.1898 57.2334 5
    endloop
  endfacet
  facet normal 0.682032 0.731322 0
    outer loop
      vertex -15.3174 57.3524 5
      vertex -15.1898 57.2334 0
      vertex -15.3174 57.3524 0
    endloop
  endfacet
  facet normal 0.0521677 0.998638 -0
    outer loop
      vertex -16.7397 57.9562 0
      vertex -16.9139 57.9653 5
      vertex -16.7397 57.9562 5
    endloop
  endfacet
  facet normal 0.0521677 0.998638 0
    outer loop
      vertex -16.9139 57.9653 5
      vertex -16.7397 57.9562 0
      vertex -16.9139 57.9653 0
    endloop
  endfacet
  facet normal -0.224692 0.97443 0
    outer loop
      vertex -17.4346 57.9197 0
      vertex -17.6046 57.8805 5
      vertex -17.4346 57.9197 5
    endloop
  endfacet
  facet normal -0.224692 0.97443 0
    outer loop
      vertex -17.6046 57.8805 5
      vertex -17.4346 57.9197 0
      vertex -17.6046 57.8805 0
    endloop
  endfacet
  facet normal -0.981624 -0.190824 0
    outer loop
      vertex -19.3935 54.9033 0
      vertex -19.4268 55.0746 5
      vertex -19.4268 55.0746 0
    endloop
  endfacet
  facet normal -0.981624 -0.190824 0
    outer loop
      vertex -19.4268 55.0746 5
      vertex -19.3935 54.9033 0
      vertex -19.3935 54.9033 5
    endloop
  endfacet
  facet normal -0.933449 0.35871 0
    outer loop
      vertex -19.3214 56.2796 0
      vertex -19.2588 56.4425 5
      vertex -19.2588 56.4425 0
    endloop
  endfacet
  facet normal -0.933449 0.35871 0
    outer loop
      vertex -19.2588 56.4425 5
      vertex -19.3214 56.2796 0
      vertex -19.3214 56.2796 5
    endloop
  endfacet
  facet normal -0.484621 0.874724 0
    outer loop
      vertex -18.0925 57.6932 0
      vertex -18.2452 57.6086 5
      vertex -18.0925 57.6932 5
    endloop
  endfacet
  facet normal -0.484621 0.874724 0
    outer loop
      vertex -18.2452 57.6086 5
      vertex -18.0925 57.6932 0
      vertex -18.2452 57.6086 0
    endloop
  endfacet
  facet normal 0.981624 0.190824 0
    outer loop
      vertex -14.4883 55.8568 5
      vertex -14.5216 56.0281 0
      vertex -14.5216 56.0281 5
    endloop
  endfacet
  facet normal 0.981624 0.190824 0
    outer loop
      vertex -14.5216 56.0281 0
      vertex -14.4883 55.8568 5
      vertex -14.4883 55.8568 0
    endloop
  endfacet
  facet normal 0.906359 -0.422509 0
    outer loop
      vertex -14.73 54.3307 5
      vertex -14.6563 54.4888 0
      vertex -14.6563 54.4888 5
    endloop
  endfacet
  facet normal 0.906359 -0.422509 0
    outer loop
      vertex -14.6563 54.4888 0
      vertex -14.73 54.3307 5
      vertex -14.73 54.3307 0
    endloop
  endfacet
  facet normal -0.390874 -0.920444 0
    outer loop
      vertex -18.0141 53.1999 0
      vertex -17.8535 53.1317 5
      vertex -18.0141 53.1999 5
    endloop
  endfacet
  facet normal -0.390874 -0.920444 -0
    outer loop
      vertex -17.8535 53.1317 5
      vertex -18.0141 53.1999 0
      vertex -17.8535 53.1317 0
    endloop
  endfacet
  facet normal 0.920444 0.390874 0
    outer loop
      vertex -14.6236 56.3616 5
      vertex -14.6918 56.5222 0
      vertex -14.6918 56.5222 5
    endloop
  endfacet
  facet normal 0.920444 0.390874 0
    outer loop
      vertex -14.6918 56.5222 0
      vertex -14.6236 56.3616 5
      vertex -14.6236 56.3616 0
    endloop
  endfacet
  facet normal 0.857139 0.515085 0
    outer loop
      vertex -14.771 56.6777 5
      vertex -14.8609 56.8273 0
      vertex -14.8609 56.8273 5
    endloop
  endfacet
  facet normal 0.857139 0.515085 0
    outer loop
      vertex -14.8609 56.8273 0
      vertex -14.771 56.6777 5
      vertex -14.771 56.6777 0
    endloop
  endfacet
  facet normal 0.514917 0.85724 -0
    outer loop
      vertex -15.596 57.5624 0
      vertex -15.7455 57.6522 5
      vertex -15.596 57.5624 5
    endloop
  endfacet
  facet normal 0.514917 0.85724 0
    outer loop
      vertex -15.7455 57.6522 5
      vertex -15.596 57.5624 0
      vertex -15.7455 57.6522 0
    endloop
  endfacet
  facet normal 0.573462 0.819232 -0
    outer loop
      vertex -15.453 57.4623 0
      vertex -15.596 57.5624 5
      vertex -15.453 57.4623 5
    endloop
  endfacet
  facet normal 0.573462 0.819232 0
    outer loop
      vertex -15.596 57.5624 5
      vertex -15.453 57.4623 0
      vertex -15.596 57.5624 0
    endloop
  endfacet
  facet normal 0.453849 0.891079 -0
    outer loop
      vertex -15.7455 57.6522 0
      vertex -15.901 57.7314 5
      vertex -15.7455 57.6522 5
    endloop
  endfacet
  facet normal 0.453849 0.891079 0
    outer loop
      vertex -15.901 57.7314 5
      vertex -15.7455 57.6522 0
      vertex -15.901 57.7314 0
    endloop
  endfacet
  facet normal 0.258946 0.965892 -0
    outer loop
      vertex -16.2266 57.8564 0
      vertex -16.3952 57.9016 5
      vertex -16.2266 57.8564 5
    endloop
  endfacet
  facet normal 0.258946 0.965892 0
    outer loop
      vertex -16.3952 57.9016 5
      vertex -16.2266 57.8564 0
      vertex -16.3952 57.9016 0
    endloop
  endfacet
  facet normal -0.292233 0.956347 0
    outer loop
      vertex -17.6046 57.8805 0
      vertex -17.7715 57.8295 5
      vertex -17.6046 57.8805 5
    endloop
  endfacet
  facet normal -0.292233 0.956347 0
    outer loop
      vertex -17.7715 57.8295 5
      vertex -17.6046 57.8805 0
      vertex -17.7715 57.8295 0
    endloop
  endfacet
  facet normal -0.156404 0.987693 0
    outer loop
      vertex -17.2622 57.947 0
      vertex -17.4346 57.9197 5
      vertex -17.2622 57.947 5
    endloop
  endfacet
  facet normal -0.156404 0.987693 0
    outer loop
      vertex -17.4346 57.9197 5
      vertex -17.2622 57.947 0
      vertex -17.4346 57.9197 0
    endloop
  endfacet
  facet normal -0.965892 -0.258946 0
    outer loop
      vertex -19.3483 54.7347 0
      vertex -19.3935 54.9033 5
      vertex -19.3935 54.9033 0
    endloop
  endfacet
  facet normal -0.965892 -0.258946 0
    outer loop
      vertex -19.3935 54.9033 5
      vertex -19.3483 54.7347 0
      vertex -19.3483 54.7347 5
    endloop
  endfacet
  facet normal -0.987693 0.156404 0
    outer loop
      vertex -19.4389 55.7703 0
      vertex -19.4116 55.9427 5
      vertex -19.4116 55.9427 0
    endloop
  endfacet
  facet normal -0.987693 0.156404 0
    outer loop
      vertex -19.4116 55.9427 5
      vertex -19.4389 55.7703 0
      vertex -19.4389 55.7703 5
    endloop
  endfacet
  facet normal -0.97443 0.224692 0
    outer loop
      vertex -19.4116 55.9427 0
      vertex -19.3724 56.1127 5
      vertex -19.3724 56.1127 0
    endloop
  endfacet
  facet normal -0.97443 0.224692 0
    outer loop
      vertex -19.3724 56.1127 5
      vertex -19.4116 55.9427 0
      vertex -19.4116 55.9427 5
    endloop
  endfacet
  facet normal -0.422509 0.906359 0
    outer loop
      vertex -17.9344 57.7669 0
      vertex -18.0925 57.6932 5
      vertex -17.9344 57.7669 5
    endloop
  endfacet
  facet normal -0.422509 0.906359 0
    outer loop
      vertex -18.0925 57.6932 5
      vertex -17.9344 57.7669 0
      vertex -18.0925 57.6932 0
    endloop
  endfacet
  facet normal -0.798761 0.601649 0
    outer loop
      vertex -19.0054 56.8996 0
      vertex -18.9004 57.039 5
      vertex -18.9004 57.039 0
    endloop
  endfacet
  facet normal -0.798761 0.601649 0
    outer loop
      vertex -18.9004 57.039 5
      vertex -19.0054 56.8996 0
      vertex -19.0054 56.8996 5
    endloop
  endfacet
  facet normal -0.707393 0.70682 0
    outer loop
      vertex -18.7859 57.1707 0
      vertex -18.6626 57.2941 5
      vertex -18.6626 57.2941 0
    endloop
  endfacet
  facet normal -0.707393 0.70682 0
    outer loop
      vertex -18.6626 57.2941 5
      vertex -18.7859 57.1707 0
      vertex -18.7859 57.1707 5
    endloop
  endfacet
  facet normal -0.906461 0.422289 0
    outer loop
      vertex -19.2588 56.4425 0
      vertex -19.1851 56.6007 5
      vertex -19.1851 56.6007 0
    endloop
  endfacet
  facet normal -0.906461 0.422289 0
    outer loop
      vertex -19.1851 56.6007 5
      vertex -19.2588 56.4425 0
      vertex -19.2588 56.4425 5
    endloop
  endfacet
  facet normal 0.945543 0.325496 0
    outer loop
      vertex -14.5668 56.1966 5
      vertex -14.6236 56.3616 0
      vertex -14.6236 56.3616 5
    endloop
  endfacet
  facet normal 0.945543 0.325496 0
    outer loop
      vertex -14.6236 56.3616 0
      vertex -14.5668 56.1966 5
      vertex -14.5668 56.1966 0
    endloop
  endfacet
  facet normal 0.707107 -0.707107 0
    outer loop
      vertex -15.2526 53.6373 5
      vertex -15.1292 53.7607 0
      vertex -15.1292 53.7607 5
    endloop
  endfacet
  facet normal 0.707107 -0.707107 0
    outer loop
      vertex -15.1292 53.7607 0
      vertex -15.2526 53.6373 5
      vertex -15.2526 53.6373 0
    endloop
  endfacet
  facet normal 0.974459 -0.224567 0
    outer loop
      vertex -14.5427 54.8186 5
      vertex -14.5035 54.9887 0
      vertex -14.5035 54.9887 5
    endloop
  endfacet
  facet normal 0.974459 -0.224567 0
    outer loop
      vertex -14.5035 54.9887 0
      vertex -14.5427 54.8186 5
      vertex -14.5427 54.8186 0
    endloop
  endfacet
  facet normal 0.956138 -0.292917 0
    outer loop
      vertex -14.5938 54.6518 5
      vertex -14.5427 54.8186 0
      vertex -14.5427 54.8186 5
    endloop
  endfacet
  facet normal 0.956138 -0.292917 0
    outer loop
      vertex -14.5427 54.8186 0
      vertex -14.5938 54.6518 5
      vertex -14.5938 54.6518 0
    endloop
  endfacet
  facet normal -0.819232 -0.573462 0
    outer loop
      vertex -18.9541 53.9611 0
      vertex -19.0542 54.1041 5
      vertex -19.0542 54.1041 0
    endloop
  endfacet
  facet normal -0.819232 -0.573462 0
    outer loop
      vertex -19.0542 54.1041 5
      vertex -18.9541 53.9611 0
      vertex -18.9541 53.9611 5
    endloop
  endfacet
  facet normal -0.515085 -0.857139 0
    outer loop
      vertex -18.3192 53.369 0
      vertex -18.1696 53.2791 5
      vertex -18.3192 53.369 5
    endloop
  endfacet
  facet normal -0.515085 -0.857139 -0
    outer loop
      vertex -18.1696 53.2791 5
      vertex -18.3192 53.369 0
      vertex -18.1696 53.2791 0
    endloop
  endfacet
  facet normal 0.891079 0.453849 0
    outer loop
      vertex -14.6918 56.5222 5
      vertex -14.771 56.6777 0
      vertex -14.771 56.6777 5
    endloop
  endfacet
  facet normal 0.891079 0.453849 0
    outer loop
      vertex -14.771 56.6777 0
      vertex -14.6918 56.5222 5
      vertex -14.6918 56.5222 0
    endloop
  endfacet
  facet normal 0.777165 0.629297 0
    outer loop
      vertex -14.961 56.9702 5
      vertex -15.0708 57.1058 0
      vertex -15.0708 57.1058 5
    endloop
  endfacet
  facet normal 0.777165 0.629297 0
    outer loop
      vertex -15.0708 57.1058 0
      vertex -14.961 56.9702 5
      vertex -14.961 56.9702 0
    endloop
  endfacet
  facet normal 0.819043 0.573732 0
    outer loop
      vertex -14.8609 56.8273 5
      vertex -14.961 56.9702 0
      vertex -14.961 56.9702 5
    endloop
  endfacet
  facet normal 0.819043 0.573732 0
    outer loop
      vertex -14.961 56.9702 0
      vertex -14.8609 56.8273 5
      vertex -14.8609 56.8273 0
    endloop
  endfacet
  facet normal 0.629643 0.776885 -0
    outer loop
      vertex -15.3174 57.3524 0
      vertex -15.453 57.4623 5
      vertex -15.3174 57.3524 5
    endloop
  endfacet
  facet normal 0.629643 0.776885 0
    outer loop
      vertex -15.453 57.4623 5
      vertex -15.3174 57.3524 0
      vertex -15.453 57.4623 0
    endloop
  endfacet
  facet normal 0.325496 0.945543 -0
    outer loop
      vertex -16.0616 57.7996 0
      vertex -16.2266 57.8564 5
      vertex -16.0616 57.7996 5
    endloop
  endfacet
  facet normal 0.325496 0.945543 0
    outer loop
      vertex -16.2266 57.8564 5
      vertex -16.0616 57.7996 0
      vertex -16.2266 57.8564 0
    endloop
  endfacet
  facet normal -0.35871 0.933449 0
    outer loop
      vertex -17.7715 57.8295 0
      vertex -17.9344 57.7669 5
      vertex -17.7715 57.8295 5
    endloop
  endfacet
  facet normal -0.35871 0.933449 0
    outer loop
      vertex -17.9344 57.7669 5
      vertex -17.7715 57.8295 0
      vertex -17.9344 57.7669 0
    endloop
  endfacet
  facet normal 0.12206 0.992523 -0
    outer loop
      vertex -16.5665 57.9349 0
      vertex -16.7397 57.9562 5
      vertex -16.5665 57.9349 5
    endloop
  endfacet
  facet normal 0.12206 0.992523 0
    outer loop
      vertex -16.7397 57.9562 5
      vertex -16.5665 57.9349 0
      vertex -16.7397 57.9562 0
    endloop
  endfacet
  facet normal 0.190824 0.981624 -0
    outer loop
      vertex -16.3952 57.9016 0
      vertex -16.5665 57.9349 5
      vertex -16.3952 57.9016 5
    endloop
  endfacet
  facet normal 0.190824 0.981624 0
    outer loop
      vertex -16.5665 57.9349 5
      vertex -16.3952 57.9016 0
      vertex -16.5665 57.9349 0
    endloop
  endfacet
  facet normal -0.0871243 0.996197 0
    outer loop
      vertex -17.0884 57.9622 0
      vertex -17.2622 57.947 5
      vertex -17.0884 57.9622 5
    endloop
  endfacet
  facet normal -0.0871243 0.996197 0
    outer loop
      vertex -17.2622 57.947 5
      vertex -17.0884 57.9622 0
      vertex -17.2622 57.947 0
    endloop
  endfacet
  facet normal -0.0177622 0.999842 0
    outer loop
      vertex -16.9139 57.9653 0
      vertex -17.0884 57.9622 5
      vertex -16.9139 57.9653 5
    endloop
  endfacet
  facet normal -0.0177622 0.999842 0
    outer loop
      vertex -17.0884 57.9622 5
      vertex -16.9139 57.9653 0
      vertex -17.0884 57.9622 0
    endloop
  endfacet
  facet normal -0.945483 -0.325673 0
    outer loop
      vertex -19.2915 54.5698 0
      vertex -19.3483 54.7347 5
      vertex -19.3483 54.7347 0
    endloop
  endfacet
  facet normal -0.945483 -0.325673 0
    outer loop
      vertex -19.3483 54.7347 5
      vertex -19.2915 54.5698 0
      vertex -19.2915 54.5698 5
    endloop
  endfacet
  facet normal -0.999842 0.0177622 0
    outer loop
      vertex -19.4572 55.422 0
      vertex -19.4541 55.5965 5
      vertex -19.4541 55.5965 0
    endloop
  endfacet
  facet normal -0.999842 0.0177622 0
    outer loop
      vertex -19.4541 55.5965 5
      vertex -19.4572 55.422 0
      vertex -19.4572 55.422 5
    endloop
  endfacet
  facet normal -0.992592 -0.121495 0
    outer loop
      vertex -19.4268 55.0746 0
      vertex -19.448 55.2478 5
      vertex -19.448 55.2478 0
    endloop
  endfacet
  facet normal -0.992592 -0.121495 0
    outer loop
      vertex -19.448 55.2478 5
      vertex -19.4268 55.0746 0
      vertex -19.4268 55.0746 5
    endloop
  endfacet
  facet normal -0.956347 0.292233 0
    outer loop
      vertex -19.3724 56.1127 0
      vertex -19.3214 56.2796 5
      vertex -19.3214 56.2796 0
    endloop
  endfacet
  facet normal -0.956347 0.292233 0
    outer loop
      vertex -19.3214 56.2796 5
      vertex -19.3724 56.1127 0
      vertex -19.3724 56.1127 5
    endloop
  endfacet
  facet normal -0.544605 0.838692 0
    outer loop
      vertex -18.2452 57.6086 0
      vertex -18.3915 57.5136 5
      vertex -18.2452 57.6086 5
    endloop
  endfacet
  facet normal -0.544605 0.838692 0
    outer loop
      vertex -18.3915 57.5136 5
      vertex -18.2452 57.6086 0
      vertex -18.3915 57.5136 0
    endloop
  endfacet
  facet normal -0.602014 0.798485 0
    outer loop
      vertex -18.3915 57.5136 0
      vertex -18.5309 57.4085 5
      vertex -18.3915 57.5136 5
    endloop
  endfacet
  facet normal -0.602014 0.798485 0
    outer loop
      vertex -18.5309 57.4085 5
      vertex -18.3915 57.5136 0
      vertex -18.5309 57.4085 0
    endloop
  endfacet
  facet normal -0.754667 0.656108 0
    outer loop
      vertex -18.9004 57.039 0
      vertex -18.7859 57.1707 5
      vertex -18.7859 57.1707 0
    endloop
  endfacet
  facet normal -0.754667 0.656108 0
    outer loop
      vertex -18.7859 57.1707 5
      vertex -18.9004 57.039 0
      vertex -18.9004 57.039 5
    endloop
  endfacet
  facet normal -0.874589 0.484864 0
    outer loop
      vertex -19.1851 56.6007 0
      vertex -19.1005 56.7533 5
      vertex -19.1005 56.7533 0
    endloop
  endfacet
  facet normal -0.874589 0.484864 0
    outer loop
      vertex -19.1005 56.7533 5
      vertex -19.1851 56.6007 0
      vertex -19.1851 56.6007 5
    endloop
  endfacet
  facet normal -0.838431 0.545008 0
    outer loop
      vertex -19.1005 56.7533 0
      vertex -19.0054 56.8996 5
      vertex -19.0054 56.8996 0
    endloop
  endfacet
  facet normal -0.838431 0.545008 0
    outer loop
      vertex -19.0054 56.8996 5
      vertex -19.1005 56.7533 0
      vertex -19.1005 56.7533 5
    endloop
  endfacet
  facet normal 0.965853 0.259089 0
    outer loop
      vertex -14.5216 56.0281 5
      vertex -14.5668 56.1966 0
      vertex -14.5668 56.1966 5
    endloop
  endfacet
  facet normal 0.965853 0.259089 0
    outer loop
      vertex -14.5668 56.1966 0
      vertex -14.5216 56.0281 5
      vertex -14.5216 56.0281 0
    endloop
  endfacet
  facet normal 0.99861 0.0527092 0
    outer loop
      vertex -14.4579 55.5093 5
      vertex -14.4671 55.6836 0
      vertex -14.4671 55.6836 5
    endloop
  endfacet
  facet normal 0.99861 0.0527092 0
    outer loop
      vertex -14.4671 55.6836 0
      vertex -14.4579 55.5093 5
      vertex -14.4579 55.5093 0
    endloop
  endfacet
  facet normal 0.992592 0.121495 0
    outer loop
      vertex -14.4671 55.6836 5
      vertex -14.4883 55.8568 0
      vertex -14.4883 55.8568 5
    endloop
  endfacet
  facet normal 0.992592 0.121495 0
    outer loop
      vertex -14.4883 55.8568 0
      vertex -14.4671 55.6836 5
      vertex -14.4671 55.6836 0
    endloop
  endfacet
  facet normal 0.999842 -0.0177622 0
    outer loop
      vertex -14.461 55.3348 5
      vertex -14.4579 55.5093 0
      vertex -14.4579 55.5093 5
    endloop
  endfacet
  facet normal 0.999842 -0.0177622 0
    outer loop
      vertex -14.4579 55.5093 0
      vertex -14.461 55.3348 5
      vertex -14.461 55.3348 0
    endloop
  endfacet
  facet normal 0.656344 -0.754462 0
    outer loop
      vertex -15.3318 53.5684 0
      vertex -15.2526 53.6373 5
      vertex -15.3318 53.5684 5
    endloop
  endfacet
  facet normal 0.656344 -0.754462 0
    outer loop
      vertex -15.2526 53.6373 5
      vertex -15.3318 53.5684 0
      vertex -15.2526 53.6373 0
    endloop
  endfacet
  facet normal 0.798553 -0.601924 0
    outer loop
      vertex -15.0147 53.8924 5
      vertex -14.9097 54.0317 0
      vertex -14.9097 54.0317 5
    endloop
  endfacet
  facet normal 0.798553 -0.601924 0
    outer loop
      vertex -14.9097 54.0317 0
      vertex -15.0147 53.8924 5
      vertex -15.0147 53.8924 0
    endloop
  endfacet
  facet normal 0.874589 -0.484864 0
    outer loop
      vertex -14.8146 54.1781 5
      vertex -14.73 54.3307 0
      vertex -14.73 54.3307 5
    endloop
  endfacet
  facet normal 0.874589 -0.484864 0
    outer loop
      vertex -14.73 54.3307 0
      vertex -14.8146 54.1781 5
      vertex -14.8146 54.1781 0
    endloop
  endfacet
  facet normal 0.754667 -0.656108 0
    outer loop
      vertex -15.1292 53.7607 5
      vertex -15.0147 53.8924 0
      vertex -15.0147 53.8924 5
    endloop
  endfacet
  facet normal 0.754667 -0.656108 0
    outer loop
      vertex -15.0147 53.8924 0
      vertex -15.1292 53.7607 5
      vertex -15.1292 53.7607 0
    endloop
  endfacet
  facet normal 0.987679 -0.156492 0
    outer loop
      vertex -14.5035 54.9887 5
      vertex -14.4762 55.161 0
      vertex -14.4762 55.161 5
    endloop
  endfacet
  facet normal 0.987679 -0.156492 0
    outer loop
      vertex -14.4762 55.161 0
      vertex -14.5035 54.9887 5
      vertex -14.5035 54.9887 0
    endloop
  endfacet
  facet normal 0.933714 -0.358019 0
    outer loop
      vertex -14.6563 54.4888 5
      vertex -14.5938 54.6518 0
      vertex -14.5938 54.6518 5
    endloop
  endfacet
  facet normal 0.933714 -0.358019 0
    outer loop
      vertex -14.5938 54.6518 0
      vertex -14.6563 54.4888 5
      vertex -14.6563 54.4888 0
    endloop
  endfacet
  facet normal -0.258411 -0.966035 0
    outer loop
      vertex -17.6885 53.0749 0
      vertex -17.5199 53.0298 5
      vertex -17.6885 53.0749 5
    endloop
  endfacet
  facet normal -0.258411 -0.966035 -0
    outer loop
      vertex -17.5199 53.0298 5
      vertex -17.6885 53.0749 0
      vertex -17.5199 53.0298 0
    endloop
  endfacet
  facet normal -0.325496 -0.945543 0
    outer loop
      vertex -17.8535 53.1317 0
      vertex -17.6885 53.0749 5
      vertex -17.8535 53.1317 5
    endloop
  endfacet
  facet normal -0.325496 -0.945543 -0
    outer loop
      vertex -17.6885 53.0749 5
      vertex -17.8535 53.1317 0
      vertex -17.6885 53.0749 0
    endloop
  endfacet
  facet normal -0.777165 -0.629297 0
    outer loop
      vertex -18.8443 53.8255 0
      vertex -18.9541 53.9611 5
      vertex -18.9541 53.9611 0
    endloop
  endfacet
  facet normal -0.777165 -0.629297 0
    outer loop
      vertex -18.9541 53.9611 5
      vertex -18.8443 53.8255 0
      vertex -18.8443 53.8255 5
    endloop
  endfacet
  facet normal -0.857139 -0.515085 0
    outer loop
      vertex -19.0542 54.1041 0
      vertex -19.1441 54.2537 5
      vertex -19.1441 54.2537 0
    endloop
  endfacet
  facet normal -0.857139 -0.515085 0
    outer loop
      vertex -19.1441 54.2537 5
      vertex -19.0542 54.1041 0
      vertex -19.0542 54.1041 5
    endloop
  endfacet
  facet normal -0.920532 -0.390668 0
    outer loop
      vertex -19.2233 54.4091 0
      vertex -19.2915 54.5698 5
      vertex -19.2915 54.5698 0
    endloop
  endfacet
  facet normal -0.920532 -0.390668 0
    outer loop
      vertex -19.2915 54.5698 5
      vertex -19.2233 54.4091 0
      vertex -19.2233 54.4091 5
    endloop
  endfacet
  facet normal -0.573732 -0.819043 0
    outer loop
      vertex -18.4621 53.4691 0
      vertex -18.3192 53.369 5
      vertex -18.4621 53.4691 5
    endloop
  endfacet
  facet normal -0.573732 -0.819043 -0
    outer loop
      vertex -18.3192 53.369 5
      vertex -18.4621 53.4691 0
      vertex -18.3192 53.369 0
    endloop
  endfacet
  facet normal -0.682032 -0.731322 0
    outer loop
      vertex -18.7253 53.6979 0
      vertex -18.5977 53.5789 5
      vertex -18.7253 53.6979 5
    endloop
  endfacet
  facet normal -0.682032 -0.731322 -0
    outer loop
      vertex -18.5977 53.5789 5
      vertex -18.7253 53.6979 0
      vertex -18.5977 53.5789 0
    endloop
  endfacet
  facet normal -0.453849 -0.891079 0
    outer loop
      vertex -18.1696 53.2791 0
      vertex -18.0141 53.1999 5
      vertex -18.1696 53.2791 5
    endloop
  endfacet
  facet normal -0.453849 -0.891079 -0
    outer loop
      vertex -18.0141 53.1999 5
      vertex -18.1696 53.2791 0
      vertex -18.0141 53.1999 0
    endloop
  endfacet
  facet normal -0.998608 -0.0527394 0
    outer loop
      vertex -19.448 55.2478 0
      vertex -19.4572 55.422 5
      vertex -19.4572 55.422 0
    endloop
  endfacet
  facet normal -0.998608 -0.0527394 0
    outer loop
      vertex -19.4572 55.422 5
      vertex -19.448 55.2478 0
      vertex -19.448 55.2478 5
    endloop
  endfacet
  facet normal 0.838601 -0.544747 0
    outer loop
      vertex -14.9097 54.0317 5
      vertex -14.8146 54.1781 0
      vertex -14.8146 54.1781 5
    endloop
  endfacet
  facet normal 0.838601 -0.544747 0
    outer loop
      vertex -14.8146 54.1781 0
      vertex -14.9097 54.0317 5
      vertex -14.9097 54.0317 0
    endloop
  endfacet
  facet normal -0.190824 -0.981624 0
    outer loop
      vertex -17.5199 53.0298 0
      vertex -17.3486 52.9965 5
      vertex -17.5199 53.0298 5
    endloop
  endfacet
  facet normal -0.190824 -0.981624 -0
    outer loop
      vertex -17.3486 52.9965 5
      vertex -17.5199 53.0298 0
      vertex -17.3486 52.9965 0
    endloop
  endfacet
  facet normal -0.731322 -0.682032 0
    outer loop
      vertex -18.7253 53.6979 0
      vertex -18.8443 53.8255 5
      vertex -18.8443 53.8255 0
    endloop
  endfacet
  facet normal -0.731322 -0.682032 0
    outer loop
      vertex -18.8443 53.8255 5
      vertex -18.7253 53.6979 0
      vertex -18.7253 53.6979 5
    endloop
  endfacet
  facet normal -0.890961 -0.45408 0
    outer loop
      vertex -19.1441 54.2537 0
      vertex -19.2233 54.4091 5
      vertex -19.2233 54.4091 0
    endloop
  endfacet
  facet normal -0.890961 -0.45408 0
    outer loop
      vertex -19.2233 54.4091 5
      vertex -19.1441 54.2537 0
      vertex -19.1441 54.2537 5
    endloop
  endfacet
  facet normal -0.629297 -0.777165 0
    outer loop
      vertex -18.5977 53.5789 0
      vertex -18.4621 53.4691 5
      vertex -18.5977 53.5789 5
    endloop
  endfacet
  facet normal -0.629297 -0.777165 -0
    outer loop
      vertex -18.4621 53.4691 5
      vertex -18.5977 53.5789 0
      vertex -18.4621 53.4691 0
    endloop
  endfacet
endsolid OpenSCAD_Model
